  0
SECTION
  2
HEADER
  9
$ACADVER
  1
AC1021
  9
$DWGCODEPAGE
  3
ANSI_1252
  9
$EXTMAX
 10
3051.7578125
 20
2574.9206542969
 30
0.0
  9
$EXTMIN
 10
0.0
 20
0.0
 30
0.0
  9
$LIMMIN
 10
0.0
 20
0.0
  9
$LIMMAX
 10
3051.7578125
 20
2574.9206542969
  9
$VIEWCTR
 10
1525.87890625
 20
1287.4603271484
  9
$VIEWSIZE
 40
2574.9206542969
  9
$CLAYER
  8
0
  9
$LTSCALE
 40
198.9293981482
  9
$CELTYPE
  6
BYLAYER
  9
$DIMSCALE
 40
1.0
  9
$DIMASZ
 40
0.1875
  9
$DIMEXO
 40
0.0625
  9
$DIMDLI
 40
38.0
  9
$DIMEXE
 40
0.125
  9
$DIMCEN
 40
9.0
  9
$DIMLFAC
 40
1.0
  9
$DIMBLK
  1
_CLOSED
  9
$DIMALT
 70
0
  9
$DIMALTF
 40
0.0393700787
  9
$DIMTXT
 40
0.15625
  9
$DIMDSEP
 70
46
  9
$AUNITS
 70
0
  9
$PDMODE
 70
0
  9
$PDSIZE
 40
0.3125
  9
$HANDSEED
  5
302
  9
$TILEMODE
 70
1
  9
$MEASUREMENT
 70
1
  9
$INSUNITS
 70
4
  0
ENDSEC
  0
SECTION
  2
CLASSES
  0
CLASS
  1
ACDBDICTIONARYWDFLT
  2
AcDbDictionaryWithDefault
  3
AutoCAD 2000
 90
0
 91
1
280
0
281
0
  0
CLASS
  1
ACDBPLACEHOLDER
  2
AcDbPlaceHolder
  3
AutoCAD 2000
 90
0
 91
1
280
0
281
0
  0
CLASS
  1
LAYOUT
  2
AcDbLayout
  3
AutoCAD 2000
 90
0
 91
0
280
0
281
0
  0
ENDSEC
  0
SECTION
  2
TABLES
  0
TABLE
  2
VPORT
  5
8
100
AcDbSymbolTable
 70
2
  0
VPORT
  5
1F4
100
AcDbSymbolTableRecord
100
AcDbViewportTableRecord
  2
*ACTIVE
 70
0
 10
0.0
 20
0.0
 11
1.0
 21
1.0
 12
1525.87890625
 22
1287.4603271484
 13
0.0
 23
0.0
 14
1.0
 24
1.0
 15
0.0
 25
0.0
 16
0.0
 26
0.0
 36
1.0
 17
0.0
 27
0.0
 37
0.0
 40
2574.9206542969
 41
1.1851851852
 42
50.0
 43
0.0
 44
0.0
 50
0.0
 51
0.0
 71
0
 72
100
 73
1
 74
1
 75
0
 76
0
 77
0
 78
0
  0
ENDTAB
  0
TABLE
  2
LTYPE
  5
5
100
AcDbSymbolTable
 70
6
  0
LTYPE
  5
14
100
AcDbSymbolTableRecord
100
AcDbLinetypeTableRecord
  2
BYBLOCK
 70
0
  3

 72
65
 73
0
 40
0.0
  0
LTYPE
  5
15
100
AcDbSymbolTableRecord
100
AcDbLinetypeTableRecord
  2
BYLAYER
 70
0
  3

 72
65
 73
0
 40
0.0
  0
LTYPE
  5
16
100
AcDbSymbolTableRecord
100
AcDbLinetypeTableRecord
  2
CONTINUOUS
 70
64
  3
Solid line
 72
65
 73
0
 40
0.0
  0
LTYPE
  5
1F5
100
AcDbSymbolTableRecord
100
AcDbLinetypeTableRecord
  2
CENTER
 70
64
  3
____ _ ____ _ ____ _ ____ _ ____ _ ____ _ ____
 72
65
 73
4
 40
0.6
 49
0.375
 74
0
 49
-0.075
 74
0
 49
0.075
 74
0
 49
-0.075
 74
0
  0
LTYPE
  5
1F6
100
AcDbSymbolTableRecord
100
AcDbLinetypeTableRecord
  2
HIDDEN
 70
64
  3
- - - - - - - - - - - - - - - - - - - -
 72
65
 73
2
 40
0.2
 49
0.1
 74
0
 49
-0.1
 74
0
  0
LTYPE
  5
1F7
100
AcDbSymbolTableRecord
100
AcDbLinetypeTableRecord
  2
PHANTOM
 70
64
  3
_____ _ _ _____ _ _ _____ _ _ _____
 72
65
 73
6
 40
0.8
 49
0.45
 74
0
 49
-0.05
 74
0
 49
0.1
 74
0
 49
-0.05
 74
0
 49
0.1
 74
0
 49
-0.05
 74
0
  0
LTYPE
  5
1F8
100
AcDbSymbolTableRecord
100
AcDbLinetypeTableRecord
  2
DOT
 70
64
  3
. . . . . . . . . . . . . . . . . . . .
 72
65
 73
2
 40
0.08
 49
0.0
 74
0
 49
-0.08
 74
0
  0
LTYPE
  5
1F9
100
AcDbSymbolTableRecord
100
AcDbLinetypeTableRecord
  2
DASHED
 70
64
  3
- - - - - - - - - - - - - - - - - - - -
 72
65
 73
2
 40
0.2
 49
0.1
 74
0
 49
-0.1
 74
0
  0
ENDTAB
  0
TABLE
  2
LAYER
  5
2
100
AcDbSymbolTable
 70
36
  0
LAYER
  5
10
100
AcDbSymbolTableRecord
100
AcDbLayerTableRecord
  2
0
 70
0
 62
7
  6
CONTINUOUS
370
-3
390
F
  0
LAYER
  5
1FA
100
AcDbSymbolTableRecord
100
AcDbLayerTableRecord
  2
DEFAULT_1
 70
0
 62
7
  6
CENTER
370
-3
390
F
  0
LAYER
  5
1FB
100
AcDbSymbolTableRecord
100
AcDbLayerTableRecord
  2
DEFAULT_2
 70
0
 62
8
  6
HIDDEN
370
-3
390
F
  0
LAYER
  5
1FC
100
AcDbSymbolTableRecord
100
AcDbLayerTableRecord
  2
DEFAULT_3
 70
0
 62
7
  6
PHANTOM
370
-3
390
F
  0
LAYER
  5
1FD
100
AcDbSymbolTableRecord
100
AcDbLayerTableRecord
  2
1
 70
0
 62
7
  6
CONTINUOUS
370
-3
390
F
  0
LAYER
  5
1FE
100
AcDbSymbolTableRecord
100
AcDbLayerTableRecord
  2
2
 70
0
 62
7
  6
CONTINUOUS
370
-3
390
F
  0
LAYER
  5
1FF
100
AcDbSymbolTableRecord
100
AcDbLayerTableRecord
  2
3
 70
0
 62
7
  6
CONTINUOUS
370
-3
390
F
  0
LAYER
  5
200
100
AcDbSymbolTableRecord
100
AcDbLayerTableRecord
  2
4
 70
0
 62
7
  6
CONTINUOUS
370
-3
390
F
  0
LAYER
  5
201
100
AcDbSymbolTableRecord
100
AcDbLayerTableRecord
  2
5
 70
0
 62
7
  6
CONTINUOUS
370
-3
390
F
  0
LAYER
  5
202
100
AcDbSymbolTableRecord
100
AcDbLayerTableRecord
  2
6
 70
0
 62
7
  6
CONTINUOUS
370
-3
390
F
  0
LAYER
  5
203
100
AcDbSymbolTableRecord
100
AcDbLayerTableRecord
  2
7
 70
0
 62
7
  6
CONTINUOUS
370
-3
390
F
  0
LAYER
  5
204
100
AcDbSymbolTableRecord
100
AcDbLayerTableRecord
  2
8
 70
0
 62
7
  6
CONTINUOUS
370
-3
390
F
  0
LAYER
  5
205
100
AcDbSymbolTableRecord
100
AcDbLayerTableRecord
  2
9
 70
0
 62
7
  6
CONTINUOUS
370
-3
390
F
  0
LAYER
  5
206
100
AcDbSymbolTableRecord
100
AcDbLayerTableRecord
  2
10
 70
0
 62
7
  6
CONTINUOUS
370
-3
390
F
  0
LAYER
  5
207
100
AcDbSymbolTableRecord
100
AcDbLayerTableRecord
  2
11
 70
0
 62
7
  6
CONTINUOUS
370
-3
390
F
  0
LAYER
  5
208
100
AcDbSymbolTableRecord
100
AcDbLayerTableRecord
  2
12
 70
0
 62
7
  6
CONTINUOUS
370
-3
390
F
  0
LAYER
  5
209
100
AcDbSymbolTableRecord
100
AcDbLayerTableRecord
  2
13
 70
0
 62
7
  6
CONTINUOUS
370
-3
390
F
  0
LAYER
  5
20A
100
AcDbSymbolTableRecord
100
AcDbLayerTableRecord
  2
14
 70
0
 62
7
  6
CONTINUOUS
370
-3
390
F
  0
LAYER
  5
20B
100
AcDbSymbolTableRecord
100
AcDbLayerTableRecord
  2
15
 70
0
 62
7
  6
CONTINUOUS
370
-3
390
F
  0
LAYER
  5
20C
100
AcDbSymbolTableRecord
100
AcDbLayerTableRecord
  2
16
 70
0
 62
7
  6
CONTINUOUS
370
-3
390
F
  0
LAYER
  5
20D
100
AcDbSymbolTableRecord
100
AcDbLayerTableRecord
  2
17
 70
0
 62
7
  6
CONTINUOUS
370
-3
390
F
  0
ENDTAB
  0
TABLE
  2
STYLE
  5
3
100
AcDbSymbolTable
 70
1
  0
ENDTAB
  0
TABLE
  2
VIEW
  5
6
100
AcDbSymbolTable
 70
0
  0
ENDTAB
  0
TABLE
  2
UCS
  5
7
100
AcDbSymbolTable
 70
0
  0
ENDTAB
  0
TABLE
  2
APPID
  5
9
100
AcDbSymbolTable
 70
1
  0
APPID
  5
20E
100
AcDbSymbolTableRecord
100
AcDbRegAppTableRecord
  2
ACAD
 70
0
  0
ENDTAB
  0
TABLE
  2
BLOCK_RECORD
  5
1
100
AcDbSymbolTable
 70
0
  0
BLOCK_RECORD
  5
20F
100
AcDbSymbolTableRecord
100
AcDbBlockTableRecord
  2
*Model_Space
  0
BLOCK_RECORD
  5
210
100
AcDbSymbolTableRecord
100
AcDbBlockTableRecord
  2
*Paper_Space
  0
BLOCK_RECORD
  5
211
100
AcDbSymbolTableRecord
100
AcDbBlockTableRecord
  2
_CLOSED
  0
ENDTAB
  0
TABLE
  2
DIMSTYLE
  5
A
100
AcDbSymbolTable
 70
1
100
AcDbDimStyleTable
 71
0
  0
ENDTAB
  0
ENDSEC
  0
SECTION
  2
BLOCKS
  0
BLOCK
  5
20
100
AcDbEntity
  8
0
100
AcDbBlockBegin
  2
*Model_Space
 70
0
 10
0.0
 20
0.0
 30
0.0
  3
*Model_Space
  1

  0
ENDBLK
  5
21
100
AcDbEntity
  8
0
100
AcDbBlockEnd
  0
BLOCK
  5
1C
100
AcDbEntity
  8
0
100
AcDbBlockBegin
  2
*Paper_Space
 70
0
 10
0.0
 20
0.0
 30
0.0
  3
*Paper_Space
  1

  0
ENDBLK
  5
1D
100
AcDbEntity
  8
0
100
AcDbBlockEnd
  0
BLOCK
  5
212
100
AcDbEntity
  8
0
100
AcDbBlockBegin
  2
_CLOSED
 70
64
 10
0.0
 20
0.0
  3
_CLOSED
  1

  0
LINE
  5
213
100
AcDbEntity
  8
0
  6
BYBLOCK
 62
0
100
AcDbLine
 10
0.0
 20
0.0
 11
-1.0
 21
0.1666666667
  0
LINE
  5
214
100
AcDbEntity
  8
0
  6
BYBLOCK
 62
0
100
AcDbLine
 10
-1.0
 20
0.1666666667
 11
-1.0
 21
-0.1666666667
  0
LINE
  5
215
100
AcDbEntity
  8
0
  6
BYBLOCK
 62
0
100
AcDbLine
 10
-1.0
 20
-0.1666666667
 11
0.0
 21
0.0
  0
LINE
  5
216
100
AcDbEntity
  8
0
  6
BYBLOCK
 62
0
100
AcDbLine
 10
-1.0
 20
0.0
 11
0.0
 21
0.0
  0
ENDBLK
  5
217
100
AcDbEntity
  8
0
  6
BYBLOCK
 62
0
100
AcDbBlockEnd
  0
ENDSEC
  0
SECTION
  2
ENTITIES
  0
3DFACE
  5
218
100
AcDbEntity
  8
1
100
AcDbFace
  6
CONTINUOUS
 10
20.0
 20
0.6210150765
 30
2.3181982446
 11
20.0
 21
-0.0
 31
2.4
 12
20.0
 22
0.6210151286
 32
-2.3181982331
 13
20.0
 23
0.6210150765
 33
2.3181982446
  0
3DFACE
  5
219
100
AcDbEntity
  8
1
100
AcDbFace
  6
CONTINUOUS
 10
20.0
 20
0.6210151286
 30
-2.3181982331
 11
20.0
 21
-0.0
 31
2.4
 12
20.0
 22
0.0
 32
-2.4
 13
20.0
 23
0.6210151286
 33
-2.3181982331
  0
3DFACE
  5
21A
100
AcDbEntity
  8
1
100
AcDbFace
  6
CONTINUOUS
 10
20.0
 20
0.0
 30
-2.4
 11
20.0
 21
-0.0
 31
2.4
 12
20.0
 22
-0.6210151286
 32
2.3181982331
 13
20.0
 23
0.0
 33
-2.4
  0
3DFACE
  5
21B
100
AcDbEntity
  8
1
100
AcDbFace
  6
CONTINUOUS
 10
20.0
 20
1.2001479879
 30
2.0783522986
 11
20.0
 21
0.6210150765
 31
2.3181982446
 12
20.0
 22
1.2001479979
 32
-2.0783522928
 13
20.0
 23
1.2001479879
 33
2.0783522986
  0
3DFACE
  5
21C
100
AcDbEntity
  8
1
100
AcDbFace
  6
CONTINUOUS
 10
20.0
 20
1.2001479979
 30
-2.0783522928
 11
20.0
 21
0.6210150765
 31
2.3181982446
 12
20.0
 22
0.6210151286
 32
-2.3181982331
 13
20.0
 23
1.2001479979
 33
-2.0783522928
  0
3DFACE
  5
21D
100
AcDbEntity
  8
1
100
AcDbFace
  6
CONTINUOUS
 10
20.0
 20
1.6968262197
 30
1.6972342188
 11
20.0
 21
1.2001479879
 31
2.0783522986
 12
20.0
 22
1.6968262175
 32
-1.697234221
 13
20.0
 23
1.6968262197
 33
1.6972342188
  0
3DFACE
  5
21E
100
AcDbEntity
  8
1
100
AcDbFace
  6
CONTINUOUS
 10
20.0
 20
1.6968262175
 30
-1.697234221
 11
20.0
 21
1.2001479879
 31
2.0783522986
 12
20.0
 22
1.2001479979
 32
-2.0783522928
 13
20.0
 23
1.6968262175
 33
-1.697234221
  0
3DFACE
  5
21F
100
AcDbEntity
  8
1
100
AcDbFace
  6
CONTINUOUS
 10
20.0
 20
2.0784898655
 30
1.1998466041
 11
20.0
 21
1.6968262197
 31
1.6972342188
 12
20.0
 22
2.0784898582
 32
-1.1998466168
 13
20.0
 23
2.0784898655
 33
1.1998466041
  0
3DFACE
  5
220
100
AcDbEntity
  8
1
100
AcDbFace
  6
CONTINUOUS
 10
20.0
 20
2.0784898582
 30
-1.1998466168
 11
20.0
 21
1.6968262197
 31
1.6972342188
 12
20.0
 22
1.6968262175
 32
-1.697234221
 13
20.0
 23
2.0784898582
 33
-1.1998466168
  0
3DFACE
  5
221
100
AcDbEntity
  8
1
100
AcDbFace
  6
CONTINUOUS
 10
20.0
 20
2.3181688014
 30
0.6213405549
 11
20.0
 21
2.0784898655
 31
1.1998466041
 12
20.0
 22
2.318168796
 32
-0.621340575
 13
20.0
 23
2.3181688014
 33
0.6213405549
  0
3DFACE
  5
222
100
AcDbEntity
  8
1
100
AcDbFace
  6
CONTINUOUS
 10
20.0
 20
2.318168796
 30
-0.621340575
 11
20.0
 21
2.0784898655
 31
1.1998466041
 12
20.0
 22
2.0784898582
 32
-1.1998466168
 13
20.0
 23
2.318168796
 33
-0.621340575
  0
3DFACE
  5
223
100
AcDbEntity
  8
1
100
AcDbFace
  6
CONTINUOUS
 10
20.0
 20
2.3999345516
 30
-0.0000000112
 11
20.0
 21
2.3181688014
 31
0.6213405549
 12
20.0
 22
2.318168796
 32
-0.621340575
 13
20.0
 23
2.3999345516
 33
-0.0000000112
  0
3DFACE
  5
224
100
AcDbEntity
  8
1
100
AcDbFace
  6
CONTINUOUS
 10
20.0
 20
-0.6210150765
 30
-2.3181982446
 11
20.0
 21
0.0
 31
-2.4
 12
20.0
 22
-0.6210151286
 32
2.3181982331
 13
20.0
 23
-0.6210150765
 33
-2.3181982446
  0
3DFACE
  5
225
100
AcDbEntity
  8
1
100
AcDbFace
  6
CONTINUOUS
 10
20.0
 20
-1.2001479879
 30
-2.0783522986
 11
20.0
 21
-0.6210150765
 31
-2.3181982446
 12
20.0
 22
-1.2001479979
 32
2.0783522928
 13
20.0
 23
-1.2001479879
 33
-2.0783522986
  0
3DFACE
  5
226
100
AcDbEntity
  8
1
100
AcDbFace
  6
CONTINUOUS
 10
20.0
 20
-1.2001479979
 30
2.0783522928
 11
20.0
 21
-0.6210150765
 31
-2.3181982446
 12
20.0
 22
-0.6210151286
 32
2.3181982331
 13
20.0
 23
-1.2001479979
 33
2.0783522928
  0
3DFACE
  5
227
100
AcDbEntity
  8
1
100
AcDbFace
  6
CONTINUOUS
 10
20.0
 20
-1.6968262197
 30
-1.6972342188
 11
20.0
 21
-1.2001479879
 31
-2.0783522986
 12
20.0
 22
-1.6968262175
 32
1.697234221
 13
20.0
 23
-1.6968262197
 33
-1.6972342188
  0
3DFACE
  5
228
100
AcDbEntity
  8
1
100
AcDbFace
  6
CONTINUOUS
 10
20.0
 20
-1.6968262175
 30
1.697234221
 11
20.0
 21
-1.2001479879
 31
-2.0783522986
 12
20.0
 22
-1.2001479979
 32
2.0783522928
 13
20.0
 23
-1.6968262175
 33
1.697234221
  0
3DFACE
  5
229
100
AcDbEntity
  8
1
100
AcDbFace
  6
CONTINUOUS
 10
20.0
 20
-2.0784898655
 30
-1.1998466041
 11
20.0
 21
-1.6968262197
 31
-1.6972342188
 12
20.0
 22
-2.0784898582
 32
1.1998466168
 13
20.0
 23
-2.0784898655
 33
-1.1998466041
  0
3DFACE
  5
22A
100
AcDbEntity
  8
1
100
AcDbFace
  6
CONTINUOUS
 10
20.0
 20
-2.0784898582
 30
1.1998466168
 11
20.0
 21
-1.6968262197
 31
-1.6972342188
 12
20.0
 22
-1.6968262175
 32
1.697234221
 13
20.0
 23
-2.0784898582
 33
1.1998466168
  0
3DFACE
  5
22B
100
AcDbEntity
  8
1
100
AcDbFace
  6
CONTINUOUS
 10
20.0
 20
-2.3181688014
 30
-0.6213405549
 11
20.0
 21
-2.0784898655
 31
-1.1998466041
 12
20.0
 22
-2.318168796
 32
0.621340575
 13
20.0
 23
-2.3181688014
 33
-0.6213405549
  0
3DFACE
  5
22C
100
AcDbEntity
  8
1
100
AcDbFace
  6
CONTINUOUS
 10
20.0
 20
-2.318168796
 30
0.621340575
 11
20.0
 21
-2.0784898655
 31
-1.1998466041
 12
20.0
 22
-2.0784898582
 32
1.1998466168
 13
20.0
 23
-2.318168796
 33
0.621340575
  0
3DFACE
  5
22D
100
AcDbEntity
  8
1
100
AcDbFace
  6
CONTINUOUS
 10
20.0
 20
-2.3999345516
 30
0.0000000112
 11
20.0
 21
-2.3181688014
 31
-0.6213405549
 12
20.0
 22
-2.318168796
 32
0.621340575
 13
20.0
 23
-2.3999345516
 33
0.0000000112
  0
3DFACE
  5
22E
100
AcDbEntity
  8
2
100
AcDbFace
  6
CONTINUOUS
 10
3.4
 20
0.0
 30
-3.0
 11
19.4
 21
0.0
 31
-3.0
 12
19.4
 22
-1.3016481913
 32
-2.702908061
 13
3.4
 23
0.0
 33
-3.0
  0
3DFACE
  5
22F
100
AcDbEntity
  8
2
100
AcDbFace
  6
CONTINUOUS
 10
3.4
 20
-0.6675628019
 30
-2.9247837365
 11
3.4
 21
0.0
 31
-3.0
 12
19.4
 22
-1.3016481913
 32
-2.702908061
 13
3.4
 23
-0.6675628019
 33
-2.9247837365
  0
3DFACE
  5
230
100
AcDbEntity
  8
2
100
AcDbFace
  6
CONTINUOUS
 10
3.4
 20
-1.3016512174
 30
-2.7029066037
 11
3.4
 21
-0.6675628019
 31
-2.9247837365
 12
19.4
 22
-1.3016481913
 32
-2.702908061
 13
3.4
 23
-1.3016512174
 33
-2.7029066037
  0
3DFACE
  5
231
100
AcDbEntity
  8
2
100
AcDbFace
  6
CONTINUOUS
 10
3.4
 20
-1.8704694056
 30
-2.3454944474
 11
3.4
 21
-1.3016512174
 31
-2.7029066037
 12
19.4
 22
-2.3454932563
 32
-1.8704708992
 13
3.4
 23
-1.8704694056
 33
-2.3454944474
  0
3DFACE
  5
232
100
AcDbEntity
  8
2
100
AcDbFace
  6
CONTINUOUS
 10
19.4
 20
-2.3454932563
 30
-1.8704708992
 11
3.4
 21
-1.3016512174
 31
-2.7029066037
 12
19.4
 22
-1.3016481913
 32
-2.702908061
 13
19.4
 23
-2.3454932563
 33
-1.8704708992
  0
3DFACE
  5
233
100
AcDbEntity
  8
2
100
AcDbFace
  6
CONTINUOUS
 10
3.4
 20
-2.3454944474
 30
-1.8704694056
 11
3.4
 21
-1.8704694056
 31
-2.3454944474
 12
19.4
 22
-2.3454932563
 32
-1.8704708992
 13
3.4
 23
-2.3454944474
 33
-1.8704694056
  0
3DFACE
  5
234
100
AcDbEntity
  8
2
100
AcDbFace
  6
CONTINUOUS
 10
3.4
 20
-2.7029066037
 30
-1.3016512174
 11
3.4
 21
-2.3454944474
 31
-1.8704694056
 12
19.4
 22
-2.924783598
 32
-0.6675634087
 13
3.4
 23
-2.7029066037
 33
-1.3016512174
  0
3DFACE
  5
235
100
AcDbEntity
  8
2
100
AcDbFace
  6
CONTINUOUS
 10
19.4
 20
-2.924783598
 30
-0.6675634087
 11
3.4
 21
-2.3454944474
 31
-1.8704694056
 12
19.4
 22
-2.3454932563
 32
-1.8704708992
 13
19.4
 23
-2.924783598
 33
-0.6675634087
  0
3DFACE
  5
236
100
AcDbEntity
  8
2
100
AcDbFace
  6
CONTINUOUS
 10
3.4
 20
-2.9247837365
 30
-0.6675628019
 11
3.4
 21
-2.7029066037
 31
-1.3016512174
 12
19.4
 22
-2.924783598
 32
-0.6675634087
 13
3.4
 23
-2.9247837365
 33
-0.6675628019
  0
3DFACE
  5
237
100
AcDbEntity
  8
2
100
AcDbFace
  6
CONTINUOUS
 10
3.4
 20
-3.0
 30
-0.0
 11
3.4
 21
-2.9247837365
 31
-0.6675628019
 12
19.4
 22
-2.9247835929
 32
0.6675634313
 13
3.4
 23
-3.0
 33
-0.0
  0
3DFACE
  5
238
100
AcDbEntity
  8
2
100
AcDbFace
  6
CONTINUOUS
 10
19.4
 20
-2.9247835929
 30
0.6675634313
 11
3.4
 21
-2.9247837365
 31
-0.6675628019
 12
19.4
 22
-2.924783598
 32
-0.6675634087
 13
19.4
 23
-2.9247835929
 33
0.6675634313
  0
3DFACE
  5
239
100
AcDbEntity
  8
2
100
AcDbFace
  6
CONTINUOUS
 10
3.4
 20
-2.9247837365
 30
0.6675628019
 11
3.4
 21
-3.0
 31
-0.0
 12
19.4
 22
-2.9247835929
 32
0.6675634313
 13
3.4
 23
-2.9247837365
 33
0.6675628019
  0
3DFACE
  5
23A
100
AcDbEntity
  8
2
100
AcDbFace
  6
CONTINUOUS
 10
3.4
 20
-2.7029066037
 30
1.3016512174
 11
3.4
 21
-2.9247837365
 31
0.6675628019
 12
19.4
 22
-2.3454932418
 32
1.8704709174
 13
3.4
 23
-2.7029066037
 33
1.3016512174
  0
3DFACE
  5
23B
100
AcDbEntity
  8
2
100
AcDbFace
  6
CONTINUOUS
 10
19.4
 20
-2.3454932418
 30
1.8704709174
 11
3.4
 21
-2.9247837365
 31
0.6675628019
 12
19.4
 22
-2.9247835929
 32
0.6675634313
 13
19.4
 23
-2.3454932418
 33
1.8704709174
  0
3DFACE
  5
23C
100
AcDbEntity
  8
2
100
AcDbFace
  6
CONTINUOUS
 10
3.4
 20
-2.3454944474
 30
1.8704694056
 11
3.4
 21
-2.7029066037
 31
1.3016512174
 12
19.4
 22
-2.3454932418
 32
1.8704709174
 13
3.4
 23
-2.3454944474
 33
1.8704694056
  0
3DFACE
  5
23D
100
AcDbEntity
  8
2
100
AcDbFace
  6
CONTINUOUS
 10
3.4
 20
-1.8704694056
 30
2.3454944474
 11
3.4
 21
-2.3454944474
 31
1.8704694056
 12
19.4
 22
-1.3016481716
 32
2.7029080704
 13
3.4
 23
-1.8704694056
 33
2.3454944474
  0
3DFACE
  5
23E
100
AcDbEntity
  8
2
100
AcDbFace
  6
CONTINUOUS
 10
19.4
 20
-1.3016481716
 30
2.7029080704
 11
3.4
 21
-2.3454944474
 31
1.8704694056
 12
19.4
 22
-2.3454932418
 32
1.8704709174
 13
19.4
 23
-1.3016481716
 33
2.7029080704
  0
3DFACE
  5
23F
100
AcDbEntity
  8
2
100
AcDbFace
  6
CONTINUOUS
 10
3.4
 20
-1.3016512174
 30
2.7029066037
 11
3.4
 21
-1.8704694056
 31
2.3454944474
 12
19.4
 22
-1.3016481716
 32
2.7029080704
 13
3.4
 23
-1.3016512174
 33
2.7029066037
  0
3DFACE
  5
240
100
AcDbEntity
  8
2
100
AcDbFace
  6
CONTINUOUS
 10
3.4
 20
-0.6675628019
 30
2.9247837365
 11
3.4
 21
-1.3016512174
 31
2.7029066037
 12
19.4
 22
-0.0
 32
3.0
 13
3.4
 23
-0.6675628019
 33
2.9247837365
  0
3DFACE
  5
241
100
AcDbEntity
  8
2
100
AcDbFace
  6
CONTINUOUS
 10
19.4
 20
-0.0
 30
3.0
 11
3.4
 21
-1.3016512174
 31
2.7029066037
 12
19.4
 22
-1.3016481716
 32
2.7029080704
 13
19.4
 23
-0.0
 33
3.0
  0
3DFACE
  5
242
100
AcDbEntity
  8
2
100
AcDbFace
  6
CONTINUOUS
 10
3.4
 20
-0.0
 30
3.0
 11
3.4
 21
-0.6675628019
 31
2.9247837365
 12
19.4
 22
-0.0
 32
3.0
 13
3.4
 23
-0.0
 33
3.0
  0
3DFACE
  5
243
100
AcDbEntity
  8
3
100
AcDbFace
  6
CONTINUOUS
 10
3.4
 20
0.0
 30
-3.0
 11
3.4
 21
-0.6675628019
 31
-2.9247837365
 12
0.4
 22
0.0
 32
-6.0
 13
3.4
 23
0.0
 33
-3.0
  0
3DFACE
  5
244
100
AcDbEntity
  8
3
100
AcDbFace
  6
CONTINUOUS
 10
3.4
 20
-0.6675628019
 30
-2.9247837365
 11
3.4
 21
-1.3016512174
 31
-2.7029066037
 12
0.4
 22
-1.8541019662
 32
-5.7063390978
 13
3.4
 23
-0.6675628019
 33
-2.9247837365
  0
3DFACE
  5
245
100
AcDbEntity
  8
3
100
AcDbFace
  6
CONTINUOUS
 10
0.4
 20
0.0
 30
-6.0
 11
3.4
 21
-0.6675628019
 31
-2.9247837365
 12
0.4
 22
-1.8541019662
 32
-5.7063390978
 13
0.4
 23
0.0
 33
-6.0
  0
3DFACE
  5
246
100
AcDbEntity
  8
3
100
AcDbFace
  6
CONTINUOUS
 10
3.4
 20
-1.3016512174
 30
-2.7029066037
 11
3.4
 21
-1.8704694056
 31
-2.3454944474
 12
0.4
 22
-3.5267115138
 32
-4.8541019662
 13
3.4
 23
-1.3016512174
 33
-2.7029066037
  0
3DFACE
  5
247
100
AcDbEntity
  8
3
100
AcDbFace
  6
CONTINUOUS
 10
0.4
 20
-1.8541019662
 30
-5.7063390978
 11
3.4
 21
-1.3016512174
 31
-2.7029066037
 12
0.4
 22
-3.5267115138
 32
-4.8541019662
 13
0.4
 23
-1.8541019662
 33
-5.7063390978
  0
3DFACE
  5
248
100
AcDbEntity
  8
3
100
AcDbFace
  6
CONTINUOUS
 10
3.4
 20
-1.8704694056
 30
-2.3454944474
 11
3.4
 21
-2.3454944474
 31
-1.8704694056
 12
0.4
 22
-3.5267115138
 32
-4.8541019662
 13
3.4
 23
-1.8704694056
 33
-2.3454944474
  0
3DFACE
  5
249
100
AcDbEntity
  8
3
100
AcDbFace
  6
CONTINUOUS
 10
3.4
 20
-2.3454944474
 30
-1.8704694056
 11
3.4
 21
-2.7029066037
 31
-1.3016512174
 12
0.4
 22
-4.8541019662
 32
-3.5267115138
 13
3.4
 23
-2.3454944474
 33
-1.8704694056
  0
3DFACE
  5
24A
100
AcDbEntity
  8
3
100
AcDbFace
  6
CONTINUOUS
 10
0.4
 20
-3.5267115138
 30
-4.8541019662
 11
3.4
 21
-2.3454944474
 31
-1.8704694056
 12
0.4
 22
-4.8541019662
 32
-3.5267115138
 13
0.4
 23
-3.5267115138
 33
-4.8541019662
  0
3DFACE
  5
24B
100
AcDbEntity
  8
3
100
AcDbFace
  6
CONTINUOUS
 10
3.4
 20
-2.7029066037
 30
-1.3016512174
 11
3.4
 21
-2.9247837365
 31
-0.6675628019
 12
0.4
 22
-5.7063390978
 32
-1.8541019662
 13
3.4
 23
-2.7029066037
 33
-1.3016512174
  0
3DFACE
  5
24C
100
AcDbEntity
  8
3
100
AcDbFace
  6
CONTINUOUS
 10
0.4
 20
-4.8541019662
 30
-3.5267115138
 11
3.4
 21
-2.7029066037
 31
-1.3016512174
 12
0.4
 22
-5.7063390978
 32
-1.8541019662
 13
0.4
 23
-4.8541019662
 33
-3.5267115138
  0
3DFACE
  5
24D
100
AcDbEntity
  8
3
100
AcDbFace
  6
CONTINUOUS
 10
3.4
 20
-2.9247837365
 30
-0.6675628019
 11
3.4
 21
-3.0
 31
-0.0
 12
0.4
 22
-5.7063390978
 32
-1.8541019662
 13
3.4
 23
-2.9247837365
 33
-0.6675628019
  0
3DFACE
  5
24E
100
AcDbEntity
  8
3
100
AcDbFace
  6
CONTINUOUS
 10
3.4
 20
-3.0
 30
-0.0
 11
3.4
 21
-2.9247837365
 31
0.6675628019
 12
0.4
 22
-6.0
 32
-0.0
 13
3.4
 23
-3.0
 33
-0.0
  0
3DFACE
  5
24F
100
AcDbEntity
  8
3
100
AcDbFace
  6
CONTINUOUS
 10
0.4
 20
-5.7063390978
 30
-1.8541019662
 11
3.4
 21
-3.0
 31
-0.0
 12
0.4
 22
-6.0
 32
-0.0
 13
0.4
 23
-5.7063390978
 33
-1.8541019662
  0
3DFACE
  5
250
100
AcDbEntity
  8
3
100
AcDbFace
  6
CONTINUOUS
 10
3.4
 20
-2.9247837365
 30
0.6675628019
 11
3.4
 21
-2.7029066037
 31
1.3016512174
 12
0.4
 22
-5.7063390978
 32
1.8541019662
 13
3.4
 23
-2.9247837365
 33
0.6675628019
  0
3DFACE
  5
251
100
AcDbEntity
  8
3
100
AcDbFace
  6
CONTINUOUS
 10
0.4
 20
-6.0
 30
-0.0
 11
3.4
 21
-2.9247837365
 31
0.6675628019
 12
0.4
 22
-5.7063390978
 32
1.8541019662
 13
0.4
 23
-6.0
 33
-0.0
  0
3DFACE
  5
252
100
AcDbEntity
  8
3
100
AcDbFace
  6
CONTINUOUS
 10
3.4
 20
-2.7029066037
 30
1.3016512174
 11
3.4
 21
-2.3454944474
 31
1.8704694056
 12
0.4
 22
-4.8541019662
 32
3.5267115138
 13
3.4
 23
-2.7029066037
 33
1.3016512174
  0
3DFACE
  5
253
100
AcDbEntity
  8
3
100
AcDbFace
  6
CONTINUOUS
 10
0.4
 20
-5.7063390978
 30
1.8541019662
 11
3.4
 21
-2.7029066037
 31
1.3016512174
 12
0.4
 22
-4.8541019662
 32
3.5267115138
 13
0.4
 23
-5.7063390978
 33
1.8541019662
  0
3DFACE
  5
254
100
AcDbEntity
  8
3
100
AcDbFace
  6
CONTINUOUS
 10
3.4
 20
-2.3454944474
 30
1.8704694056
 11
3.4
 21
-1.8704694056
 31
2.3454944474
 12
0.4
 22
-4.8541019662
 32
3.5267115138
 13
3.4
 23
-2.3454944474
 33
1.8704694056
  0
3DFACE
  5
255
100
AcDbEntity
  8
3
100
AcDbFace
  6
CONTINUOUS
 10
3.4
 20
-1.8704694056
 30
2.3454944474
 11
3.4
 21
-1.3016512174
 31
2.7029066037
 12
0.4
 22
-3.5267115138
 32
4.8541019662
 13
3.4
 23
-1.8704694056
 33
2.3454944474
  0
3DFACE
  5
256
100
AcDbEntity
  8
3
100
AcDbFace
  6
CONTINUOUS
 10
0.4
 20
-4.8541019662
 30
3.5267115138
 11
3.4
 21
-1.8704694056
 31
2.3454944474
 12
0.4
 22
-3.5267115138
 32
4.8541019662
 13
0.4
 23
-4.8541019662
 33
3.5267115138
  0
3DFACE
  5
257
100
AcDbEntity
  8
3
100
AcDbFace
  6
CONTINUOUS
 10
3.4
 20
-1.3016512174
 30
2.7029066037
 11
3.4
 21
-0.6675628019
 31
2.9247837365
 12
0.4
 22
-1.8541019662
 32
5.7063390978
 13
3.4
 23
-1.3016512174
 33
2.7029066037
  0
3DFACE
  5
258
100
AcDbEntity
  8
3
100
AcDbFace
  6
CONTINUOUS
 10
0.4
 20
-3.5267115138
 30
4.8541019662
 11
3.4
 21
-1.3016512174
 31
2.7029066037
 12
0.4
 22
-1.8541019662
 32
5.7063390978
 13
0.4
 23
-3.5267115138
 33
4.8541019662
  0
3DFACE
  5
259
100
AcDbEntity
  8
3
100
AcDbFace
  6
CONTINUOUS
 10
3.4
 20
-0.6675628019
 30
2.9247837365
 11
3.4
 21
-0.0
 31
3.0
 12
0.4
 22
-1.8541019662
 32
5.7063390978
 13
3.4
 23
-0.6675628019
 33
2.9247837365
  0
3DFACE
  5
25A
100
AcDbEntity
  8
3
100
AcDbFace
  6
CONTINUOUS
 10
0.4
 20
-1.8541019662
 30
5.7063390978
 11
3.4
 21
-0.0
 31
3.0
 12
0.4
 22
-0.0
 32
6.0
 13
0.4
 23
-1.8541019662
 33
5.7063390978
  0
3DFACE
  5
25B
100
AcDbEntity
  8
4
100
AcDbFace
  6
CONTINUOUS
 10
0.0
 20
0.0
 30
-6.0
 11
0.0
 21
-1.8541019662
 31
-5.7063390978
 12
0.0
 22
-1.1547005384
 32
-2.0
 13
0.0
 23
0.0
 33
-6.0
  0
3DFACE
  5
25C
100
AcDbEntity
  8
4
100
AcDbFace
  6
CONTINUOUS
 10
0.0
 20
1.8541019662
 30
-5.7063390978
 11
0.0
 21
0.0
 31
-6.0
 12
0.0
 22
1.1547005384
 32
-2.0
 13
0.0
 23
1.8541019662
 33
-5.7063390978
  0
3DFACE
  5
25D
100
AcDbEntity
  8
4
100
AcDbFace
  6
CONTINUOUS
 10
0.0
 20
0.0
 30
-6.0
 11
0.0
 21
-1.1547005384
 31
-2.0
 12
0.0
 22
1.1547005384
 32
-2.0
 13
0.0
 23
0.0
 33
-6.0
  0
3DFACE
  5
25E
100
AcDbEntity
  8
4
100
AcDbFace
  6
CONTINUOUS
 10
0.0
 20
-1.8541019662
 30
-5.7063390978
 11
0.0
 21
-3.5267115138
 31
-4.8541019662
 12
0.0
 22
-2.3094010768
 32
0.0
 13
0.0
 23
-1.8541019662
 33
-5.7063390978
  0
3DFACE
  5
25F
100
AcDbEntity
  8
4
100
AcDbFace
  6
CONTINUOUS
 10
0.0
 20
-1.1547005384
 30
-2.0
 11
0.0
 21
-1.8541019662
 31
-5.7063390978
 12
0.0
 22
-2.3094010768
 32
0.0
 13
0.0
 23
-1.1547005384
 33
-2.0
  0
3DFACE
  5
260
100
AcDbEntity
  8
4
100
AcDbFace
  6
CONTINUOUS
 10
0.0
 20
-3.5267115138
 30
-4.8541019662
 11
0.0
 21
-4.8541019662
 31
-3.5267115138
 12
-0.0
 22
-3.5267115138
 32
4.8541019662
 13
0.0
 23
-3.5267115138
 33
-4.8541019662
  0
3DFACE
  5
261
100
AcDbEntity
  8
4
100
AcDbFace
  6
CONTINUOUS
 10
0.0
 20
-3.5267115138
 30
-4.8541019662
 11
-0.0
 21
-3.5267115138
 31
4.8541019662
 12
-0.0
 22
-1.8541019662
 32
5.7063390978
 13
0.0
 23
-3.5267115138
 33
-4.8541019662
  0
3DFACE
  5
262
100
AcDbEntity
  8
4
100
AcDbFace
  6
CONTINUOUS
 10
0.0
 20
-3.5267115138
 30
-4.8541019662
 11
-0.0
 21
-1.8541019662
 31
5.7063390978
 12
0.0
 22
-2.3094010768
 32
0.0
 13
0.0
 23
-3.5267115138
 33
-4.8541019662
  0
3DFACE
  5
263
100
AcDbEntity
  8
4
100
AcDbFace
  6
CONTINUOUS
 10
0.0
 20
-4.8541019662
 30
-3.5267115138
 11
0.0
 21
-5.7063390978
 31
-1.8541019662
 12
-0.0
 22
-4.8541019662
 32
3.5267115138
 13
0.0
 23
-4.8541019662
 33
-3.5267115138
  0
3DFACE
  5
264
100
AcDbEntity
  8
4
100
AcDbFace
  6
CONTINUOUS
 10
0.0
 20
-4.8541019662
 30
-3.5267115138
 11
-0.0
 21
-4.8541019662
 31
3.5267115138
 12
-0.0
 22
-3.5267115138
 32
4.8541019662
 13
0.0
 23
-4.8541019662
 33
-3.5267115138
  0
3DFACE
  5
265
100
AcDbEntity
  8
4
100
AcDbFace
  6
CONTINUOUS
 10
0.0
 20
-5.7063390978
 30
-1.8541019662
 11
0.0
 21
-6.0
 31
-0.0
 12
-0.0
 22
-5.7063390978
 32
1.8541019662
 13
0.0
 23
-5.7063390978
 33
-1.8541019662
  0
3DFACE
  5
266
100
AcDbEntity
  8
4
100
AcDbFace
  6
CONTINUOUS
 10
0.0
 20
-5.7063390978
 30
-1.8541019662
 11
-0.0
 21
-5.7063390978
 31
1.8541019662
 12
-0.0
 22
-4.8541019662
 32
3.5267115138
 13
0.0
 23
-5.7063390978
 33
-1.8541019662
  0
3DFACE
  5
267
100
AcDbEntity
  8
4
100
AcDbFace
  6
CONTINUOUS
 10
-0.0
 20
-1.8541019662
 30
5.7063390978
 11
-0.0
 21
0.0
 31
6.0
 12
-0.0
 22
-1.1547005384
 32
2.0
 13
-0.0
 23
-1.8541019662
 33
5.7063390978
  0
3DFACE
  5
268
100
AcDbEntity
  8
4
100
AcDbFace
  6
CONTINUOUS
 10
0.0
 20
-2.3094010768
 30
0.0
 11
-0.0
 21
-1.8541019662
 31
5.7063390978
 12
-0.0
 22
-1.1547005384
 32
2.0
 13
0.0
 23
-2.3094010768
 33
0.0
  0
3DFACE
  5
269
100
AcDbEntity
  8
4
100
AcDbFace
  6
CONTINUOUS
 10
-0.0
 20
0.0
 30
6.0
 11
-0.0
 21
1.8541019662
 31
5.7063390978
 12
-0.0
 22
1.1547005384
 32
2.0
 13
-0.0
 23
0.0
 33
6.0
  0
3DFACE
  5
26A
100
AcDbEntity
  8
4
100
AcDbFace
  6
CONTINUOUS
 10
-0.0
 20
-1.1547005384
 30
2.0
 11
-0.0
 21
0.0
 31
6.0
 12
-0.0
 22
1.1547005384
 32
2.0
 13
-0.0
 23
-1.1547005384
 33
2.0
  0
3DFACE
  5
26B
100
AcDbEntity
  8
4
100
AcDbFace
  6
CONTINUOUS
 10
0.0
 20
3.5267115138
 30
-4.8541019662
 11
0.0
 21
1.8541019662
 31
-5.7063390978
 12
-0.0
 22
3.5267115138
 32
4.8541019662
 13
0.0
 23
3.5267115138
 33
-4.8541019662
  0
3DFACE
  5
26C
100
AcDbEntity
  8
4
100
AcDbFace
  6
CONTINUOUS
 10
-0.0
 20
3.5267115138
 30
4.8541019662
 11
0.0
 21
1.8541019662
 31
-5.7063390978
 12
-0.0
 22
2.3094010768
 32
0.0
 13
-0.0
 23
3.5267115138
 33
4.8541019662
  0
3DFACE
  5
26D
100
AcDbEntity
  8
4
100
AcDbFace
  6
CONTINUOUS
 10
-0.0
 20
2.3094010768
 30
0.0
 11
0.0
 21
1.8541019662
 31
-5.7063390978
 12
0.0
 22
1.1547005384
 32
-2.0
 13
-0.0
 23
2.3094010768
 33
0.0
  0
3DFACE
  5
26E
100
AcDbEntity
  8
4
100
AcDbFace
  6
CONTINUOUS
 10
0.0
 20
4.8541019662
 30
-3.5267115138
 11
0.0
 21
3.5267115138
 31
-4.8541019662
 12
-0.0
 22
4.8541019662
 32
3.5267115138
 13
0.0
 23
4.8541019662
 33
-3.5267115138
  0
3DFACE
  5
26F
100
AcDbEntity
  8
4
100
AcDbFace
  6
CONTINUOUS
 10
-0.0
 20
4.8541019662
 30
3.5267115138
 11
0.0
 21
3.5267115138
 31
-4.8541019662
 12
-0.0
 22
3.5267115138
 32
4.8541019662
 13
-0.0
 23
4.8541019662
 33
3.5267115138
  0
3DFACE
  5
270
100
AcDbEntity
  8
4
100
AcDbFace
  6
CONTINUOUS
 10
0.0
 20
5.7063390978
 30
-1.8541019662
 11
0.0
 21
4.8541019662
 31
-3.5267115138
 12
-0.0
 22
5.7063390978
 32
1.8541019662
 13
0.0
 23
5.7063390978
 33
-1.8541019662
  0
3DFACE
  5
271
100
AcDbEntity
  8
4
100
AcDbFace
  6
CONTINUOUS
 10
-0.0
 20
5.7063390978
 30
1.8541019662
 11
0.0
 21
4.8541019662
 31
-3.5267115138
 12
-0.0
 22
4.8541019662
 32
3.5267115138
 13
-0.0
 23
5.7063390978
 33
1.8541019662
  0
3DFACE
  5
272
100
AcDbEntity
  8
4
100
AcDbFace
  6
CONTINUOUS
 10
0.0
 20
6.0
 30
-0.0
 11
0.0
 21
5.7063390978
 31
-1.8541019662
 12
-0.0
 22
5.7063390978
 32
1.8541019662
 13
0.0
 23
6.0
 33
-0.0
  0
3DFACE
  5
273
100
AcDbEntity
  8
4
100
AcDbFace
  6
CONTINUOUS
 10
-0.0
 20
1.8541019662
 30
5.7063390978
 11
-0.0
 21
3.5267115138
 31
4.8541019662
 12
-0.0
 22
2.3094010768
 32
0.0
 13
-0.0
 23
1.8541019662
 33
5.7063390978
  0
3DFACE
  5
274
100
AcDbEntity
  8
4
100
AcDbFace
  6
CONTINUOUS
 10
-0.0
 20
1.1547005384
 30
2.0
 11
-0.0
 21
1.8541019662
 31
5.7063390978
 12
-0.0
 22
2.3094010768
 32
0.0
 13
-0.0
 23
1.1547005384
 33
2.0
  0
3DFACE
  5
275
100
AcDbEntity
  8
5
100
AcDbFace
  6
CONTINUOUS
 10
19.4
 20
0.0
 30
-3.0
 11
3.4
 21
0.0
 31
-3.0
 12
3.4
 22
0.6675628019
 32
-2.9247837365
 13
19.4
 23
0.0
 33
-3.0
  0
3DFACE
  5
276
100
AcDbEntity
  8
5
100
AcDbFace
  6
CONTINUOUS
 10
3.4
 20
1.3016512174
 30
-2.7029066037
 11
19.4
 21
0.0
 31
-3.0
 12
3.4
 22
0.6675628019
 32
-2.9247837365
 13
3.4
 23
1.3016512174
 33
-2.7029066037
  0
3DFACE
  5
277
100
AcDbEntity
  8
5
100
AcDbFace
  6
CONTINUOUS
 10
19.4
 20
0.0
 30
-3.0
 11
3.4
 21
1.3016512174
 31
-2.7029066037
 12
19.4
 22
1.3016481716
 32
-2.7029080704
 13
19.4
 23
0.0
 33
-3.0
  0
3DFACE
  5
278
100
AcDbEntity
  8
5
100
AcDbFace
  6
CONTINUOUS
 10
3.4
 20
-0.0
 30
3.0
 11
19.4
 21
-0.0
 31
3.0
 12
19.4
 22
1.3016481913
 32
2.702908061
 13
3.4
 23
-0.0
 33
3.0
  0
3DFACE
  5
279
100
AcDbEntity
  8
5
100
AcDbFace
  6
CONTINUOUS
 10
3.4
 20
0.6675628019
 30
2.9247837365
 11
3.4
 21
-0.0
 31
3.0
 12
19.4
 22
1.3016481913
 32
2.702908061
 13
3.4
 23
0.6675628019
 33
2.9247837365
  0
3DFACE
  5
27A
100
AcDbEntity
  8
5
100
AcDbFace
  6
CONTINUOUS
 10
3.4
 20
1.3016512174
 30
2.7029066037
 11
3.4
 21
0.6675628019
 31
2.9247837365
 12
19.4
 22
1.3016481913
 32
2.702908061
 13
3.4
 23
1.3016512174
 33
2.7029066037
  0
3DFACE
  5
27B
100
AcDbEntity
  8
5
100
AcDbFace
  6
CONTINUOUS
 10
3.4
 20
1.8704694056
 30
2.3454944474
 11
3.4
 21
1.3016512174
 31
2.7029066037
 12
19.4
 22
2.3454932563
 32
1.8704708992
 13
3.4
 23
1.8704694056
 33
2.3454944474
  0
3DFACE
  5
27C
100
AcDbEntity
  8
5
100
AcDbFace
  6
CONTINUOUS
 10
19.4
 20
2.3454932563
 30
1.8704708992
 11
3.4
 21
1.3016512174
 31
2.7029066037
 12
19.4
 22
1.3016481913
 32
2.702908061
 13
19.4
 23
2.3454932563
 33
1.8704708992
  0
3DFACE
  5
27D
100
AcDbEntity
  8
5
100
AcDbFace
  6
CONTINUOUS
 10
3.4
 20
2.3454944474
 30
1.8704694056
 11
3.4
 21
1.8704694056
 31
2.3454944474
 12
19.4
 22
2.3454932563
 32
1.8704708992
 13
3.4
 23
2.3454944474
 33
1.8704694056
  0
3DFACE
  5
27E
100
AcDbEntity
  8
5
100
AcDbFace
  6
CONTINUOUS
 10
3.4
 20
2.7029066037
 30
1.3016512174
 11
3.4
 21
2.3454944474
 31
1.8704694056
 12
19.4
 22
2.924783598
 32
0.6675634087
 13
3.4
 23
2.7029066037
 33
1.3016512174
  0
3DFACE
  5
27F
100
AcDbEntity
  8
5
100
AcDbFace
  6
CONTINUOUS
 10
19.4
 20
2.924783598
 30
0.6675634087
 11
3.4
 21
2.3454944474
 31
1.8704694056
 12
19.4
 22
2.3454932563
 32
1.8704708992
 13
19.4
 23
2.924783598
 33
0.6675634087
  0
3DFACE
  5
280
100
AcDbEntity
  8
5
100
AcDbFace
  6
CONTINUOUS
 10
3.4
 20
2.9247837365
 30
0.6675628019
 11
3.4
 21
2.7029066037
 31
1.3016512174
 12
19.4
 22
2.924783598
 32
0.6675634087
 13
3.4
 23
2.9247837365
 33
0.6675628019
  0
3DFACE
  5
281
100
AcDbEntity
  8
5
100
AcDbFace
  6
CONTINUOUS
 10
3.4
 20
3.0
 30
-0.0
 11
3.4
 21
2.9247837365
 31
0.6675628019
 12
19.4
 22
2.9247835929
 32
-0.6675634313
 13
3.4
 23
3.0
 33
-0.0
  0
3DFACE
  5
282
100
AcDbEntity
  8
5
100
AcDbFace
  6
CONTINUOUS
 10
19.4
 20
2.9247835929
 30
-0.6675634313
 11
3.4
 21
2.9247837365
 31
0.6675628019
 12
19.4
 22
2.924783598
 32
0.6675634087
 13
19.4
 23
2.9247835929
 33
-0.6675634313
  0
3DFACE
  5
283
100
AcDbEntity
  8
5
100
AcDbFace
  6
CONTINUOUS
 10
3.4
 20
2.9247837365
 30
-0.6675628019
 11
3.4
 21
3.0
 31
-0.0
 12
19.4
 22
2.9247835929
 32
-0.6675634313
 13
3.4
 23
2.9247837365
 33
-0.6675628019
  0
3DFACE
  5
284
100
AcDbEntity
  8
5
100
AcDbFace
  6
CONTINUOUS
 10
3.4
 20
2.7029066037
 30
-1.3016512174
 11
3.4
 21
2.9247837365
 31
-0.6675628019
 12
19.4
 22
2.3454932418
 32
-1.8704709174
 13
3.4
 23
2.7029066037
 33
-1.3016512174
  0
3DFACE
  5
285
100
AcDbEntity
  8
5
100
AcDbFace
  6
CONTINUOUS
 10
19.4
 20
2.3454932418
 30
-1.8704709174
 11
3.4
 21
2.9247837365
 31
-0.6675628019
 12
19.4
 22
2.9247835929
 32
-0.6675634313
 13
19.4
 23
2.3454932418
 33
-1.8704709174
  0
3DFACE
  5
286
100
AcDbEntity
  8
5
100
AcDbFace
  6
CONTINUOUS
 10
3.4
 20
2.3454944474
 30
-1.8704694056
 11
3.4
 21
2.7029066037
 31
-1.3016512174
 12
19.4
 22
2.3454932418
 32
-1.8704709174
 13
3.4
 23
2.3454944474
 33
-1.8704694056
  0
3DFACE
  5
287
100
AcDbEntity
  8
5
100
AcDbFace
  6
CONTINUOUS
 10
3.4
 20
1.8704694056
 30
-2.3454944474
 11
3.4
 21
2.3454944474
 31
-1.8704694056
 12
19.4
 22
1.3016481716
 32
-2.7029080704
 13
3.4
 23
1.8704694056
 33
-2.3454944474
  0
3DFACE
  5
288
100
AcDbEntity
  8
5
100
AcDbFace
  6
CONTINUOUS
 10
19.4
 20
1.3016481716
 30
-2.7029080704
 11
3.4
 21
2.3454944474
 31
-1.8704694056
 12
19.4
 22
2.3454932418
 32
-1.8704709174
 13
19.4
 23
1.3016481716
 33
-2.7029080704
  0
3DFACE
  5
289
100
AcDbEntity
  8
5
100
AcDbFace
  6
CONTINUOUS
 10
3.4
 20
1.3016512174
 30
-2.7029066037
 11
3.4
 21
1.8704694056
 31
-2.3454944474
 12
19.4
 22
1.3016481716
 32
-2.7029080704
 13
3.4
 23
1.3016512174
 33
-2.7029066037
  0
3DFACE
  5
28A
100
AcDbEntity
  8
6
100
AcDbFace
  6
CONTINUOUS
 10
3.4
 20
0.0
 30
-3.0
 11
0.4
 21
0.0
 31
-6.0
 12
0.4
 22
1.8541019662
 32
-5.7063390978
 13
3.4
 23
0.0
 33
-3.0
  0
3DFACE
  5
28B
100
AcDbEntity
  8
6
100
AcDbFace
  6
CONTINUOUS
 10
3.4
 20
0.6675628019
 30
-2.9247837365
 11
3.4
 21
0.0
 31
-3.0
 12
0.4
 22
1.8541019662
 32
-5.7063390978
 13
3.4
 23
0.6675628019
 33
-2.9247837365
  0
3DFACE
  5
28C
100
AcDbEntity
  8
6
100
AcDbFace
  6
CONTINUOUS
 10
0.4
 20
-0.0
 30
6.0
 11
3.4
 21
-0.0
 31
3.0
 12
3.4
 22
0.6675628019
 32
2.9247837365
 13
0.4
 23
-0.0
 33
6.0
  0
3DFACE
  5
28D
100
AcDbEntity
  8
6
100
AcDbFace
  6
CONTINUOUS
 10
0.4
 20
-0.0
 30
6.0
 11
3.4
 21
0.6675628019
 31
2.9247837365
 12
0.4
 22
1.8541019662
 32
5.7063390978
 13
0.4
 23
-0.0
 33
6.0
  0
3DFACE
  5
28E
100
AcDbEntity
  8
6
100
AcDbFace
  6
CONTINUOUS
 10
3.4
 20
0.6675628019
 30
2.9247837365
 11
3.4
 21
1.3016512174
 31
2.7029066037
 12
0.4
 22
1.8541019662
 32
5.7063390978
 13
3.4
 23
0.6675628019
 33
2.9247837365
  0
3DFACE
  5
28F
100
AcDbEntity
  8
6
100
AcDbFace
  6
CONTINUOUS
 10
3.4
 20
1.3016512174
 30
2.7029066037
 11
3.4
 21
1.8704694056
 31
2.3454944474
 12
0.4
 22
3.5267115138
 32
4.8541019662
 13
3.4
 23
1.3016512174
 33
2.7029066037
  0
3DFACE
  5
290
100
AcDbEntity
  8
6
100
AcDbFace
  6
CONTINUOUS
 10
0.4
 20
1.8541019662
 30
5.7063390978
 11
3.4
 21
1.3016512174
 31
2.7029066037
 12
0.4
 22
3.5267115138
 32
4.8541019662
 13
0.4
 23
1.8541019662
 33
5.7063390978
  0
3DFACE
  5
291
100
AcDbEntity
  8
6
100
AcDbFace
  6
CONTINUOUS
 10
3.4
 20
1.8704694056
 30
2.3454944474
 11
3.4
 21
2.3454944474
 31
1.8704694056
 12
0.4
 22
3.5267115138
 32
4.8541019662
 13
3.4
 23
1.8704694056
 33
2.3454944474
  0
3DFACE
  5
292
100
AcDbEntity
  8
6
100
AcDbFace
  6
CONTINUOUS
 10
3.4
 20
2.3454944474
 30
1.8704694056
 11
3.4
 21
2.7029066037
 31
1.3016512174
 12
0.4
 22
4.8541019662
 32
3.5267115138
 13
3.4
 23
2.3454944474
 33
1.8704694056
  0
3DFACE
  5
293
100
AcDbEntity
  8
6
100
AcDbFace
  6
CONTINUOUS
 10
0.4
 20
3.5267115138
 30
4.8541019662
 11
3.4
 21
2.3454944474
 31
1.8704694056
 12
0.4
 22
4.8541019662
 32
3.5267115138
 13
0.4
 23
3.5267115138
 33
4.8541019662
  0
3DFACE
  5
294
100
AcDbEntity
  8
6
100
AcDbFace
  6
CONTINUOUS
 10
3.4
 20
2.7029066037
 30
1.3016512174
 11
3.4
 21
2.9247837365
 31
0.6675628019
 12
0.4
 22
5.7063390978
 32
1.8541019662
 13
3.4
 23
2.7029066037
 33
1.3016512174
  0
3DFACE
  5
295
100
AcDbEntity
  8
6
100
AcDbFace
  6
CONTINUOUS
 10
0.4
 20
4.8541019662
 30
3.5267115138
 11
3.4
 21
2.7029066037
 31
1.3016512174
 12
0.4
 22
5.7063390978
 32
1.8541019662
 13
0.4
 23
4.8541019662
 33
3.5267115138
  0
3DFACE
  5
296
100
AcDbEntity
  8
6
100
AcDbFace
  6
CONTINUOUS
 10
3.4
 20
2.9247837365
 30
0.6675628019
 11
3.4
 21
3.0
 31
-0.0
 12
0.4
 22
5.7063390978
 32
1.8541019662
 13
3.4
 23
2.9247837365
 33
0.6675628019
  0
3DFACE
  5
297
100
AcDbEntity
  8
6
100
AcDbFace
  6
CONTINUOUS
 10
3.4
 20
3.0
 30
-0.0
 11
3.4
 21
2.9247837365
 31
-0.6675628019
 12
0.4
 22
6.0
 32
-0.0
 13
3.4
 23
3.0
 33
-0.0
  0
3DFACE
  5
298
100
AcDbEntity
  8
6
100
AcDbFace
  6
CONTINUOUS
 10
0.4
 20
5.7063390978
 30
1.8541019662
 11
3.4
 21
3.0
 31
-0.0
 12
0.4
 22
6.0
 32
-0.0
 13
0.4
 23
5.7063390978
 33
1.8541019662
  0
3DFACE
  5
299
100
AcDbEntity
  8
6
100
AcDbFace
  6
CONTINUOUS
 10
3.4
 20
2.9247837365
 30
-0.6675628019
 11
3.4
 21
2.7029066037
 31
-1.3016512174
 12
0.4
 22
5.7063390978
 32
-1.8541019662
 13
3.4
 23
2.9247837365
 33
-0.6675628019
  0
3DFACE
  5
29A
100
AcDbEntity
  8
6
100
AcDbFace
  6
CONTINUOUS
 10
0.4
 20
6.0
 30
-0.0
 11
3.4
 21
2.9247837365
 31
-0.6675628019
 12
0.4
 22
5.7063390978
 32
-1.8541019662
 13
0.4
 23
6.0
 33
-0.0
  0
3DFACE
  5
29B
100
AcDbEntity
  8
6
100
AcDbFace
  6
CONTINUOUS
 10
3.4
 20
2.7029066037
 30
-1.3016512174
 11
3.4
 21
2.3454944474
 31
-1.8704694056
 12
0.4
 22
4.8541019662
 32
-3.5267115138
 13
3.4
 23
2.7029066037
 33
-1.3016512174
  0
3DFACE
  5
29C
100
AcDbEntity
  8
6
100
AcDbFace
  6
CONTINUOUS
 10
0.4
 20
5.7063390978
 30
-1.8541019662
 11
3.4
 21
2.7029066037
 31
-1.3016512174
 12
0.4
 22
4.8541019662
 32
-3.5267115138
 13
0.4
 23
5.7063390978
 33
-1.8541019662
  0
3DFACE
  5
29D
100
AcDbEntity
  8
6
100
AcDbFace
  6
CONTINUOUS
 10
3.4
 20
2.3454944474
 30
-1.8704694056
 11
3.4
 21
1.8704694056
 31
-2.3454944474
 12
0.4
 22
4.8541019662
 32
-3.5267115138
 13
3.4
 23
2.3454944474
 33
-1.8704694056
  0
3DFACE
  5
29E
100
AcDbEntity
  8
6
100
AcDbFace
  6
CONTINUOUS
 10
3.4
 20
1.8704694056
 30
-2.3454944474
 11
3.4
 21
1.3016512174
 31
-2.7029066037
 12
0.4
 22
3.5267115138
 32
-4.8541019662
 13
3.4
 23
1.8704694056
 33
-2.3454944474
  0
3DFACE
  5
29F
100
AcDbEntity
  8
6
100
AcDbFace
  6
CONTINUOUS
 10
0.4
 20
4.8541019662
 30
-3.5267115138
 11
3.4
 21
1.8704694056
 31
-2.3454944474
 12
0.4
 22
3.5267115138
 32
-4.8541019662
 13
0.4
 23
4.8541019662
 33
-3.5267115138
  0
3DFACE
  5
2A0
100
AcDbEntity
  8
6
100
AcDbFace
  6
CONTINUOUS
 10
3.4
 20
1.3016512174
 30
-2.7029066037
 11
3.4
 21
0.6675628019
 31
-2.9247837365
 12
0.4
 22
1.8541019662
 32
-5.7063390978
 13
3.4
 23
1.3016512174
 33
-2.7029066037
  0
3DFACE
  5
2A1
100
AcDbEntity
  8
6
100
AcDbFace
  6
CONTINUOUS
 10
0.4
 20
3.5267115138
 30
-4.8541019662
 11
3.4
 21
1.3016512174
 31
-2.7029066037
 12
0.4
 22
1.8541019662
 32
-5.7063390978
 13
0.4
 23
3.5267115138
 33
-4.8541019662
  0
3DFACE
  5
2A2
100
AcDbEntity
  8
7
100
AcDbFace
  6
CONTINUOUS
 10
0.4
 20
0.0
 30
-6.0
 11
0.4
 21
-1.8541019662
 31
-5.7063390978
 12
0.0
 22
0.0
 32
-6.0
 13
0.4
 23
0.0
 33
-6.0
  0
3DFACE
  5
2A3
100
AcDbEntity
  8
7
100
AcDbFace
  6
CONTINUOUS
 10
0.4
 20
-1.8541019662
 30
-5.7063390978
 11
0.4
 21
-3.5267115138
 31
-4.8541019662
 12
0.0
 22
-1.8541019662
 32
-5.7063390978
 13
0.4
 23
-1.8541019662
 33
-5.7063390978
  0
3DFACE
  5
2A4
100
AcDbEntity
  8
7
100
AcDbFace
  6
CONTINUOUS
 10
0.0
 20
0.0
 30
-6.0
 11
0.4
 21
-1.8541019662
 31
-5.7063390978
 12
0.0
 22
-1.8541019662
 32
-5.7063390978
 13
0.0
 23
0.0
 33
-6.0
  0
3DFACE
  5
2A5
100
AcDbEntity
  8
7
100
AcDbFace
  6
CONTINUOUS
 10
0.4
 20
-3.5267115138
 30
-4.8541019662
 11
0.4
 21
-4.8541019662
 31
-3.5267115138
 12
0.0
 22
-3.5267115138
 32
-4.8541019662
 13
0.4
 23
-3.5267115138
 33
-4.8541019662
  0
3DFACE
  5
2A6
100
AcDbEntity
  8
7
100
AcDbFace
  6
CONTINUOUS
 10
0.0
 20
-1.8541019662
 30
-5.7063390978
 11
0.4
 21
-3.5267115138
 31
-4.8541019662
 12
0.0
 22
-3.5267115138
 32
-4.8541019662
 13
0.0
 23
-1.8541019662
 33
-5.7063390978
  0
3DFACE
  5
2A7
100
AcDbEntity
  8
7
100
AcDbFace
  6
CONTINUOUS
 10
0.4
 20
-4.8541019662
 30
-3.5267115138
 11
0.4
 21
-5.7063390978
 31
-1.8541019662
 12
0.0
 22
-4.8541019662
 32
-3.5267115138
 13
0.4
 23
-4.8541019662
 33
-3.5267115138
  0
3DFACE
  5
2A8
100
AcDbEntity
  8
7
100
AcDbFace
  6
CONTINUOUS
 10
0.0
 20
-3.5267115138
 30
-4.8541019662
 11
0.4
 21
-4.8541019662
 31
-3.5267115138
 12
0.0
 22
-4.8541019662
 32
-3.5267115138
 13
0.0
 23
-3.5267115138
 33
-4.8541019662
  0
3DFACE
  5
2A9
100
AcDbEntity
  8
7
100
AcDbFace
  6
CONTINUOUS
 10
0.4
 20
-5.7063390978
 30
-1.8541019662
 11
0.4
 21
-6.0
 31
-0.0
 12
0.0
 22
-5.7063390978
 32
-1.8541019662
 13
0.4
 23
-5.7063390978
 33
-1.8541019662
  0
3DFACE
  5
2AA
100
AcDbEntity
  8
7
100
AcDbFace
  6
CONTINUOUS
 10
0.0
 20
-4.8541019662
 30
-3.5267115138
 11
0.4
 21
-5.7063390978
 31
-1.8541019662
 12
0.0
 22
-5.7063390978
 32
-1.8541019662
 13
0.0
 23
-4.8541019662
 33
-3.5267115138
  0
3DFACE
  5
2AB
100
AcDbEntity
  8
7
100
AcDbFace
  6
CONTINUOUS
 10
0.4
 20
-6.0
 30
-0.0
 11
0.4
 21
-5.7063390978
 31
1.8541019662
 12
0.0
 22
-6.0
 32
-0.0
 13
0.4
 23
-6.0
 33
-0.0
  0
3DFACE
  5
2AC
100
AcDbEntity
  8
7
100
AcDbFace
  6
CONTINUOUS
 10
0.0
 20
-5.7063390978
 30
-1.8541019662
 11
0.4
 21
-6.0
 31
-0.0
 12
0.0
 22
-6.0
 32
-0.0
 13
0.0
 23
-5.7063390978
 33
-1.8541019662
  0
3DFACE
  5
2AD
100
AcDbEntity
  8
7
100
AcDbFace
  6
CONTINUOUS
 10
0.4
 20
-5.7063390978
 30
1.8541019662
 11
0.4
 21
-4.8541019662
 31
3.5267115138
 12
-0.0
 22
-5.7063390978
 32
1.8541019662
 13
0.4
 23
-5.7063390978
 33
1.8541019662
  0
3DFACE
  5
2AE
100
AcDbEntity
  8
7
100
AcDbFace
  6
CONTINUOUS
 10
0.0
 20
-6.0
 30
-0.0
 11
0.4
 21
-5.7063390978
 31
1.8541019662
 12
-0.0
 22
-5.7063390978
 32
1.8541019662
 13
0.0
 23
-6.0
 33
-0.0
  0
3DFACE
  5
2AF
100
AcDbEntity
  8
7
100
AcDbFace
  6
CONTINUOUS
 10
0.4
 20
-4.8541019662
 30
3.5267115138
 11
0.4
 21
-3.5267115138
 31
4.8541019662
 12
-0.0
 22
-4.8541019662
 32
3.5267115138
 13
0.4
 23
-4.8541019662
 33
3.5267115138
  0
3DFACE
  5
2B0
100
AcDbEntity
  8
7
100
AcDbFace
  6
CONTINUOUS
 10
-0.0
 20
-5.7063390978
 30
1.8541019662
 11
0.4
 21
-4.8541019662
 31
3.5267115138
 12
-0.0
 22
-4.8541019662
 32
3.5267115138
 13
-0.0
 23
-5.7063390978
 33
1.8541019662
  0
3DFACE
  5
2B1
100
AcDbEntity
  8
7
100
AcDbFace
  6
CONTINUOUS
 10
0.4
 20
-3.5267115138
 30
4.8541019662
 11
0.4
 21
-1.8541019662
 31
5.7063390978
 12
-0.0
 22
-3.5267115138
 32
4.8541019662
 13
0.4
 23
-3.5267115138
 33
4.8541019662
  0
3DFACE
  5
2B2
100
AcDbEntity
  8
7
100
AcDbFace
  6
CONTINUOUS
 10
-0.0
 20
-4.8541019662
 30
3.5267115138
 11
0.4
 21
-3.5267115138
 31
4.8541019662
 12
-0.0
 22
-3.5267115138
 32
4.8541019662
 13
-0.0
 23
-4.8541019662
 33
3.5267115138
  0
3DFACE
  5
2B3
100
AcDbEntity
  8
7
100
AcDbFace
  6
CONTINUOUS
 10
0.4
 20
-1.8541019662
 30
5.7063390978
 11
0.4
 21
-0.0
 31
6.0
 12
-0.0
 22
-1.8541019662
 32
5.7063390978
 13
0.4
 23
-1.8541019662
 33
5.7063390978
  0
3DFACE
  5
2B4
100
AcDbEntity
  8
7
100
AcDbFace
  6
CONTINUOUS
 10
-0.0
 20
-3.5267115138
 30
4.8541019662
 11
0.4
 21
-1.8541019662
 31
5.7063390978
 12
-0.0
 22
-1.8541019662
 32
5.7063390978
 13
-0.0
 23
-3.5267115138
 33
4.8541019662
  0
3DFACE
  5
2B5
100
AcDbEntity
  8
7
100
AcDbFace
  6
CONTINUOUS
 10
-0.0
 20
-1.8541019662
 30
5.7063390978
 11
0.4
 21
-0.0
 31
6.0
 12
-0.0
 22
0.0
 32
6.0
 13
-0.0
 23
-1.8541019662
 33
5.7063390978
  0
3DFACE
  5
2B6
100
AcDbEntity
  8
8
100
AcDbFace
  6
CONTINUOUS
 10
0.4
 20
0.0
 30
-6.0
 11
0.0
 21
0.0
 31
-6.0
 12
0.0
 22
1.8541019662
 32
-5.7063390978
 13
0.4
 23
0.0
 33
-6.0
  0
3DFACE
  5
2B7
100
AcDbEntity
  8
8
100
AcDbFace
  6
CONTINUOUS
 10
0.4
 20
0.0
 30
-6.0
 11
0.0
 21
1.8541019662
 31
-5.7063390978
 12
0.4
 22
1.8541019662
 32
-5.7063390978
 13
0.4
 23
0.0
 33
-6.0
  0
3DFACE
  5
2B8
100
AcDbEntity
  8
8
100
AcDbFace
  6
CONTINUOUS
 10
-0.0
 20
0.0
 30
6.0
 11
0.4
 21
-0.0
 31
6.0
 12
0.4
 22
1.8541019662
 32
5.7063390978
 13
-0.0
 23
0.0
 33
6.0
  0
3DFACE
  5
2B9
100
AcDbEntity
  8
8
100
AcDbFace
  6
CONTINUOUS
 10
-0.0
 20
1.8541019662
 30
5.7063390978
 11
-0.0
 21
0.0
 31
6.0
 12
0.4
 22
1.8541019662
 32
5.7063390978
 13
-0.0
 23
1.8541019662
 33
5.7063390978
  0
3DFACE
  5
2BA
100
AcDbEntity
  8
8
100
AcDbFace
  6
CONTINUOUS
 10
0.0
 20
1.8541019662
 30
-5.7063390978
 11
0.0
 21
3.5267115138
 31
-4.8541019662
 12
0.4
 22
1.8541019662
 32
-5.7063390978
 13
0.0
 23
1.8541019662
 33
-5.7063390978
  0
3DFACE
  5
2BB
100
AcDbEntity
  8
8
100
AcDbFace
  6
CONTINUOUS
 10
0.0
 20
3.5267115138
 30
-4.8541019662
 11
0.0
 21
4.8541019662
 31
-3.5267115138
 12
0.4
 22
3.5267115138
 32
-4.8541019662
 13
0.0
 23
3.5267115138
 33
-4.8541019662
  0
3DFACE
  5
2BC
100
AcDbEntity
  8
8
100
AcDbFace
  6
CONTINUOUS
 10
0.0
 20
3.5267115138
 30
-4.8541019662
 11
0.4
 21
3.5267115138
 31
-4.8541019662
 12
0.4
 22
1.8541019662
 32
-5.7063390978
 13
0.0
 23
3.5267115138
 33
-4.8541019662
  0
3DFACE
  5
2BD
100
AcDbEntity
  8
8
100
AcDbFace
  6
CONTINUOUS
 10
0.0
 20
4.8541019662
 30
-3.5267115138
 11
0.0
 21
5.7063390978
 31
-1.8541019662
 12
0.4
 22
4.8541019662
 32
-3.5267115138
 13
0.0
 23
4.8541019662
 33
-3.5267115138
  0
3DFACE
  5
2BE
100
AcDbEntity
  8
8
100
AcDbFace
  6
CONTINUOUS
 10
0.0
 20
4.8541019662
 30
-3.5267115138
 11
0.4
 21
4.8541019662
 31
-3.5267115138
 12
0.4
 22
3.5267115138
 32
-4.8541019662
 13
0.0
 23
4.8541019662
 33
-3.5267115138
  0
3DFACE
  5
2BF
100
AcDbEntity
  8
8
100
AcDbFace
  6
CONTINUOUS
 10
0.0
 20
5.7063390978
 30
-1.8541019662
 11
0.0
 21
6.0
 31
-0.0
 12
0.4
 22
5.7063390978
 32
-1.8541019662
 13
0.0
 23
5.7063390978
 33
-1.8541019662
  0
3DFACE
  5
2C0
100
AcDbEntity
  8
8
100
AcDbFace
  6
CONTINUOUS
 10
0.0
 20
5.7063390978
 30
-1.8541019662
 11
0.4
 21
5.7063390978
 31
-1.8541019662
 12
0.4
 22
4.8541019662
 32
-3.5267115138
 13
0.0
 23
5.7063390978
 33
-1.8541019662
  0
3DFACE
  5
2C1
100
AcDbEntity
  8
8
100
AcDbFace
  6
CONTINUOUS
 10
0.0
 20
6.0
 30
-0.0
 11
-0.0
 21
5.7063390978
 31
1.8541019662
 12
0.4
 22
6.0
 32
-0.0
 13
0.0
 23
6.0
 33
-0.0
  0
3DFACE
  5
2C2
100
AcDbEntity
  8
8
100
AcDbFace
  6
CONTINUOUS
 10
0.0
 20
6.0
 30
-0.0
 11
0.4
 21
6.0
 31
-0.0
 12
0.4
 22
5.7063390978
 32
-1.8541019662
 13
0.0
 23
6.0
 33
-0.0
  0
3DFACE
  5
2C3
100
AcDbEntity
  8
8
100
AcDbFace
  6
CONTINUOUS
 10
-0.0
 20
5.7063390978
 30
1.8541019662
 11
-0.0
 21
4.8541019662
 31
3.5267115138
 12
0.4
 22
5.7063390978
 32
1.8541019662
 13
-0.0
 23
5.7063390978
 33
1.8541019662
  0
3DFACE
  5
2C4
100
AcDbEntity
  8
8
100
AcDbFace
  6
CONTINUOUS
 10
-0.0
 20
5.7063390978
 30
1.8541019662
 11
0.4
 21
5.7063390978
 31
1.8541019662
 12
0.4
 22
6.0
 32
-0.0
 13
-0.0
 23
5.7063390978
 33
1.8541019662
  0
3DFACE
  5
2C5
100
AcDbEntity
  8
8
100
AcDbFace
  6
CONTINUOUS
 10
-0.0
 20
4.8541019662
 30
3.5267115138
 11
-0.0
 21
3.5267115138
 31
4.8541019662
 12
0.4
 22
4.8541019662
 32
3.5267115138
 13
-0.0
 23
4.8541019662
 33
3.5267115138
  0
3DFACE
  5
2C6
100
AcDbEntity
  8
8
100
AcDbFace
  6
CONTINUOUS
 10
-0.0
 20
4.8541019662
 30
3.5267115138
 11
0.4
 21
4.8541019662
 31
3.5267115138
 12
0.4
 22
5.7063390978
 32
1.8541019662
 13
-0.0
 23
4.8541019662
 33
3.5267115138
  0
3DFACE
  5
2C7
100
AcDbEntity
  8
8
100
AcDbFace
  6
CONTINUOUS
 10
-0.0
 20
3.5267115138
 30
4.8541019662
 11
-0.0
 21
1.8541019662
 31
5.7063390978
 12
0.4
 22
3.5267115138
 32
4.8541019662
 13
-0.0
 23
3.5267115138
 33
4.8541019662
  0
3DFACE
  5
2C8
100
AcDbEntity
  8
8
100
AcDbFace
  6
CONTINUOUS
 10
-0.0
 20
3.5267115138
 30
4.8541019662
 11
0.4
 21
3.5267115138
 31
4.8541019662
 12
0.4
 22
4.8541019662
 32
3.5267115138
 13
-0.0
 23
3.5267115138
 33
4.8541019662
  0
3DFACE
  5
2C9
100
AcDbEntity
  8
8
100
AcDbFace
  6
CONTINUOUS
 10
-0.0
 20
1.8541019662
 30
5.7063390978
 11
0.4
 21
1.8541019662
 31
5.7063390978
 12
0.4
 22
3.5267115138
 32
4.8541019662
 13
-0.0
 23
1.8541019662
 33
5.7063390978
  0
3DFACE
  5
2CA
100
AcDbEntity
  8
9
100
AcDbFace
  6
CONTINUOUS
 10
2.5
 20
1.1547005384
 30
-2.0
 11
2.5
 21
-1.1547005384
 31
-2.0
 12
2.5
 22
1.1547005384
 32
2.0
 13
2.5
 23
1.1547005384
 33
-2.0
  0
3DFACE
  5
2CB
100
AcDbEntity
  8
9
100
AcDbFace
  6
CONTINUOUS
 10
2.5
 20
1.1547005384
 30
2.0
 11
2.5
 21
-1.1547005384
 31
-2.0
 12
2.5
 22
-1.1547005384
 32
2.0
 13
2.5
 23
1.1547005384
 33
2.0
  0
3DFACE
  5
2CC
100
AcDbEntity
  8
9
100
AcDbFace
  6
CONTINUOUS
 10
2.5
 20
-1.1547005384
 30
2.0
 11
2.5
 21
-1.1547005384
 31
-2.0
 12
2.5
 22
-2.3094010768
 32
0.0
 13
2.5
 23
-1.1547005384
 33
2.0
  0
3DFACE
  5
2CD
100
AcDbEntity
  8
9
100
AcDbFace
  6
CONTINUOUS
 10
2.5
 20
2.3094010768
 30
0.0
 11
2.5
 21
1.1547005384
 31
-2.0
 12
2.5
 22
1.1547005384
 32
2.0
 13
2.5
 23
2.3094010768
 33
0.0
  0
3DFACE
  5
2CE
100
AcDbEntity
  8
10
100
AcDbFace
  6
CONTINUOUS
 10
0.0
 20
-1.1547005384
 30
-2.0
 11
0.0
 21
-2.3094010768
 31
0.0
 12
2.5
 22
-2.3094010768
 32
0.0
 13
0.0
 23
-1.1547005384
 33
-2.0
  0
3DFACE
  5
2CF
100
AcDbEntity
  8
10
100
AcDbFace
  6
CONTINUOUS
 10
2.5
 20
-1.1547005384
 30
-2.0
 11
0.0
 21
-1.1547005384
 31
-2.0
 12
2.5
 22
-2.3094010768
 32
0.0
 13
2.5
 23
-1.1547005384
 33
-2.0
  0
3DFACE
  5
2D0
100
AcDbEntity
  8
11
100
AcDbFace
  6
CONTINUOUS
 10
0.0
 20
-2.3094010768
 30
0.0
 11
-0.0
 21
-1.1547005384
 31
2.0
 12
2.5
 22
-1.1547005384
 32
2.0
 13
0.0
 23
-2.3094010768
 33
0.0
  0
3DFACE
  5
2D1
100
AcDbEntity
  8
11
100
AcDbFace
  6
CONTINUOUS
 10
0.0
 20
-2.3094010768
 30
0.0
 11
2.5
 21
-1.1547005384
 31
2.0
 12
2.5
 22
-2.3094010768
 32
0.0
 13
0.0
 23
-2.3094010768
 33
0.0
  0
3DFACE
  5
2D2
100
AcDbEntity
  8
12
100
AcDbFace
  6
CONTINUOUS
 10
-0.0
 20
-1.1547005384
 30
2.0
 11
-0.0
 21
1.1547005384
 31
2.0
 12
2.5
 22
1.1547005384
 32
2.0
 13
-0.0
 23
-1.1547005384
 33
2.0
  0
3DFACE
  5
2D3
100
AcDbEntity
  8
12
100
AcDbFace
  6
CONTINUOUS
 10
-0.0
 20
-1.1547005384
 30
2.0
 11
2.5
 21
1.1547005384
 31
2.0
 12
2.5
 22
-1.1547005384
 32
2.0
 13
-0.0
 23
-1.1547005384
 33
2.0
  0
3DFACE
  5
2D4
100
AcDbEntity
  8
13
100
AcDbFace
  6
CONTINUOUS
 10
-0.0
 20
1.1547005384
 30
2.0
 11
-0.0
 21
2.3094010768
 31
0.0
 12
2.5
 22
2.3094010768
 32
0.0
 13
-0.0
 23
1.1547005384
 33
2.0
  0
3DFACE
  5
2D5
100
AcDbEntity
  8
13
100
AcDbFace
  6
CONTINUOUS
 10
-0.0
 20
1.1547005384
 30
2.0
 11
2.5
 21
2.3094010768
 31
0.0
 12
2.5
 22
1.1547005384
 32
2.0
 13
-0.0
 23
1.1547005384
 33
2.0
  0
3DFACE
  5
2D6
100
AcDbEntity
  8
14
100
AcDbFace
  6
CONTINUOUS
 10
-0.0
 20
2.3094010768
 30
0.0
 11
0.0
 21
1.1547005384
 31
-2.0
 12
2.5
 22
1.1547005384
 32
-2.0
 13
-0.0
 23
2.3094010768
 33
0.0
  0
3DFACE
  5
2D7
100
AcDbEntity
  8
14
100
AcDbFace
  6
CONTINUOUS
 10
-0.0
 20
2.3094010768
 30
0.0
 11
2.5
 21
1.1547005384
 31
-2.0
 12
2.5
 22
2.3094010768
 32
0.0
 13
-0.0
 23
2.3094010768
 33
0.0
  0
3DFACE
  5
2D8
100
AcDbEntity
  8
15
100
AcDbFace
  6
CONTINUOUS
 10
0.0
 20
1.1547005384
 30
-2.0
 11
0.0
 21
-1.1547005384
 31
-2.0
 12
2.5
 22
-1.1547005384
 32
-2.0
 13
0.0
 23
1.1547005384
 33
-2.0
  0
3DFACE
  5
2D9
100
AcDbEntity
  8
15
100
AcDbFace
  6
CONTINUOUS
 10
0.0
 20
1.1547005384
 30
-2.0
 11
2.5
 21
-1.1547005384
 31
-2.0
 12
2.5
 22
1.1547005384
 32
-2.0
 13
0.0
 23
1.1547005384
 33
-2.0
  0
3DFACE
  5
2DA
100
AcDbEntity
  8
16
100
AcDbFace
  6
CONTINUOUS
 10
20.0
 20
-0.6210151286
 30
2.3181982331
 11
20.0
 21
-0.0
 31
2.4
 12
19.4
 22
-1.3016481716
 32
2.7029080704
 13
20.0
 23
-0.6210151286
 33
2.3181982331
  0
3DFACE
  5
2DB
100
AcDbEntity
  8
16
100
AcDbFace
  6
CONTINUOUS
 10
20.0
 20
-0.0
 30
2.4
 11
19.4
 21
-0.0
 31
3.0
 12
19.4
 22
-1.3016481716
 32
2.7029080704
 13
20.0
 23
-0.0
 33
2.4
  0
3DFACE
  5
2DC
100
AcDbEntity
  8
16
100
AcDbFace
  6
CONTINUOUS
 10
20.0
 20
0.0
 30
-2.4
 11
20.0
 21
-0.6210150765
 31
-2.3181982446
 12
19.4
 22
0.0
 32
-3.0
 13
20.0
 23
0.0
 33
-2.4
  0
3DFACE
  5
2DD
100
AcDbEntity
  8
16
100
AcDbFace
  6
CONTINUOUS
 10
20.0
 20
-0.6210150765
 30
-2.3181982446
 11
20.0
 21
-1.2001479879
 31
-2.0783522986
 12
19.4
 22
-1.3016481913
 32
-2.702908061
 13
20.0
 23
-0.6210150765
 33
-2.3181982446
  0
3DFACE
  5
2DE
100
AcDbEntity
  8
16
100
AcDbFace
  6
CONTINUOUS
 10
19.4
 20
0.0
 30
-3.0
 11
20.0
 21
-0.6210150765
 31
-2.3181982446
 12
19.4
 22
-1.3016481913
 32
-2.702908061
 13
19.4
 23
0.0
 33
-3.0
  0
3DFACE
  5
2DF
100
AcDbEntity
  8
16
100
AcDbFace
  6
CONTINUOUS
 10
20.0
 20
-1.2001479879
 30
-2.0783522986
 11
20.0
 21
-1.6968262197
 31
-1.6972342188
 12
19.4
 22
-1.3016481913
 32
-2.702908061
 13
20.0
 23
-1.2001479879
 33
-2.0783522986
  0
3DFACE
  5
2E0
100
AcDbEntity
  8
16
100
AcDbFace
  6
CONTINUOUS
 10
20.0
 20
-1.6968262197
 30
-1.6972342188
 11
20.0
 21
-2.0784898655
 31
-1.1998466041
 12
19.4
 22
-2.3454932563
 32
-1.8704708992
 13
20.0
 23
-1.6968262197
 33
-1.6972342188
  0
3DFACE
  5
2E1
100
AcDbEntity
  8
16
100
AcDbFace
  6
CONTINUOUS
 10
20.0
 20
-1.6968262197
 30
-1.6972342188
 11
19.4
 21
-2.3454932563
 31
-1.8704708992
 12
19.4
 22
-1.3016481913
 32
-2.702908061
 13
20.0
 23
-1.6968262197
 33
-1.6972342188
  0
3DFACE
  5
2E2
100
AcDbEntity
  8
16
100
AcDbFace
  6
CONTINUOUS
 10
20.0
 20
-2.0784898655
 30
-1.1998466041
 11
20.0
 21
-2.3181688014
 31
-0.6213405549
 12
19.4
 22
-2.3454932563
 32
-1.8704708992
 13
20.0
 23
-2.0784898655
 33
-1.1998466041
  0
3DFACE
  5
2E3
100
AcDbEntity
  8
16
100
AcDbFace
  6
CONTINUOUS
 10
20.0
 20
-2.3181688014
 30
-0.6213405549
 11
20.0
 21
-2.3999345516
 31
0.0000000112
 12
19.4
 22
-2.924783598
 32
-0.6675634087
 13
20.0
 23
-2.3181688014
 33
-0.6213405549
  0
3DFACE
  5
2E4
100
AcDbEntity
  8
16
100
AcDbFace
  6
CONTINUOUS
 10
20.0
 20
-2.3181688014
 30
-0.6213405549
 11
19.4
 21
-2.924783598
 31
-0.6675634087
 12
19.4
 22
-2.3454932563
 32
-1.8704708992
 13
20.0
 23
-2.3181688014
 33
-0.6213405549
  0
3DFACE
  5
2E5
100
AcDbEntity
  8
16
100
AcDbFace
  6
CONTINUOUS
 10
20.0
 20
-2.3999345516
 30
0.0000000112
 11
20.0
 21
-2.318168796
 31
0.621340575
 12
19.4
 22
-2.9247835929
 32
0.6675634313
 13
20.0
 23
-2.3999345516
 33
0.0000000112
  0
3DFACE
  5
2E6
100
AcDbEntity
  8
16
100
AcDbFace
  6
CONTINUOUS
 10
20.0
 20
-2.3999345516
 30
0.0000000112
 11
19.4
 21
-2.9247835929
 31
0.6675634313
 12
19.4
 22
-2.924783598
 32
-0.6675634087
 13
20.0
 23
-2.3999345516
 33
0.0000000112
  0
3DFACE
  5
2E7
100
AcDbEntity
  8
16
100
AcDbFace
  6
CONTINUOUS
 10
20.0
 20
-2.318168796
 30
0.621340575
 11
20.0
 21
-2.0784898582
 31
1.1998466168
 12
19.4
 22
-2.9247835929
 32
0.6675634313
 13
20.0
 23
-2.318168796
 33
0.621340575
  0
3DFACE
  5
2E8
100
AcDbEntity
  8
16
100
AcDbFace
  6
CONTINUOUS
 10
20.0
 20
-2.0784898582
 30
1.1998466168
 11
20.0
 21
-1.6968262175
 31
1.697234221
 12
19.4
 22
-2.3454932418
 32
1.8704709174
 13
20.0
 23
-2.0784898582
 33
1.1998466168
  0
3DFACE
  5
2E9
100
AcDbEntity
  8
16
100
AcDbFace
  6
CONTINUOUS
 10
20.0
 20
-2.0784898582
 30
1.1998466168
 11
19.4
 21
-2.3454932418
 31
1.8704709174
 12
19.4
 22
-2.9247835929
 32
0.6675634313
 13
20.0
 23
-2.0784898582
 33
1.1998466168
  0
3DFACE
  5
2EA
100
AcDbEntity
  8
16
100
AcDbFace
  6
CONTINUOUS
 10
20.0
 20
-1.6968262175
 30
1.697234221
 11
20.0
 21
-1.2001479979
 31
2.0783522928
 12
19.4
 22
-2.3454932418
 32
1.8704709174
 13
20.0
 23
-1.6968262175
 33
1.697234221
  0
3DFACE
  5
2EB
100
AcDbEntity
  8
16
100
AcDbFace
  6
CONTINUOUS
 10
20.0
 20
-1.2001479979
 30
2.0783522928
 11
20.0
 21
-0.6210151286
 31
2.3181982331
 12
19.4
 22
-1.3016481716
 32
2.7029080704
 13
20.0
 23
-1.2001479979
 33
2.0783522928
  0
3DFACE
  5
2EC
100
AcDbEntity
  8
16
100
AcDbFace
  6
CONTINUOUS
 10
20.0
 20
-1.2001479979
 30
2.0783522928
 11
19.4
 21
-1.3016481716
 31
2.7029080704
 12
19.4
 22
-2.3454932418
 32
1.8704709174
 13
20.0
 23
-1.2001479979
 33
2.0783522928
  0
3DFACE
  5
2ED
100
AcDbEntity
  8
17
100
AcDbFace
  6
CONTINUOUS
 10
20.0
 20
-0.0
 30
2.4
 11
20.0
 21
0.6210150765
 31
2.3181982446
 12
19.4
 22
-0.0
 32
3.0
 13
20.0
 23
-0.0
 33
2.4
  0
3DFACE
  5
2EE
100
AcDbEntity
  8
17
100
AcDbFace
  6
CONTINUOUS
 10
20.0
 20
0.6210150765
 30
2.3181982446
 11
20.0
 21
1.2001479879
 31
2.0783522986
 12
19.4
 22
1.3016481913
 32
2.702908061
 13
20.0
 23
0.6210150765
 33
2.3181982446
  0
3DFACE
  5
2EF
100
AcDbEntity
  8
17
100
AcDbFace
  6
CONTINUOUS
 10
19.4
 20
-0.0
 30
3.0
 11
20.0
 21
0.6210150765
 31
2.3181982446
 12
19.4
 22
1.3016481913
 32
2.702908061
 13
19.4
 23
-0.0
 33
3.0
  0
3DFACE
  5
2F0
100
AcDbEntity
  8
17
100
AcDbFace
  6
CONTINUOUS
 10
20.0
 20
1.2001479879
 30
2.0783522986
 11
20.0
 21
1.6968262197
 31
1.6972342188
 12
19.4
 22
1.3016481913
 32
2.702908061
 13
20.0
 23
1.2001479879
 33
2.0783522986
  0
3DFACE
  5
2F1
100
AcDbEntity
  8
17
100
AcDbFace
  6
CONTINUOUS
 10
20.0
 20
1.6968262197
 30
1.6972342188
 11
20.0
 21
2.0784898655
 31
1.1998466041
 12
19.4
 22
2.3454932563
 32
1.8704708992
 13
20.0
 23
1.6968262197
 33
1.6972342188
  0
3DFACE
  5
2F2
100
AcDbEntity
  8
17
100
AcDbFace
  6
CONTINUOUS
 10
20.0
 20
1.6968262197
 30
1.6972342188
 11
19.4
 21
2.3454932563
 31
1.8704708992
 12
19.4
 22
1.3016481913
 32
2.702908061
 13
20.0
 23
1.6968262197
 33
1.6972342188
  0
3DFACE
  5
2F3
100
AcDbEntity
  8
17
100
AcDbFace
  6
CONTINUOUS
 10
20.0
 20
2.0784898655
 30
1.1998466041
 11
20.0
 21
2.3181688014
 31
0.6213405549
 12
19.4
 22
2.3454932563
 32
1.8704708992
 13
20.0
 23
2.0784898655
 33
1.1998466041
  0
3DFACE
  5
2F4
100
AcDbEntity
  8
17
100
AcDbFace
  6
CONTINUOUS
 10
20.0
 20
2.3181688014
 30
0.6213405549
 11
20.0
 21
2.3999345516
 31
-0.0000000112
 12
19.4
 22
2.924783598
 32
0.6675634087
 13
20.0
 23
2.3181688014
 33
0.6213405549
  0
3DFACE
  5
2F5
100
AcDbEntity
  8
17
100
AcDbFace
  6
CONTINUOUS
 10
20.0
 20
2.3181688014
 30
0.6213405549
 11
19.4
 21
2.924783598
 31
0.6675634087
 12
19.4
 22
2.3454932563
 32
1.8704708992
 13
20.0
 23
2.3181688014
 33
0.6213405549
  0
3DFACE
  5
2F6
100
AcDbEntity
  8
17
100
AcDbFace
  6
CONTINUOUS
 10
20.0
 20
2.3999345516
 30
-0.0000000112
 11
20.0
 21
2.318168796
 31
-0.621340575
 12
19.4
 22
2.9247835929
 32
-0.6675634313
 13
20.0
 23
2.3999345516
 33
-0.0000000112
  0
3DFACE
  5
2F7
100
AcDbEntity
  8
17
100
AcDbFace
  6
CONTINUOUS
 10
20.0
 20
2.3999345516
 30
-0.0000000112
 11
19.4
 21
2.9247835929
 31
-0.6675634313
 12
19.4
 22
2.924783598
 32
0.6675634087
 13
20.0
 23
2.3999345516
 33
-0.0000000112
  0
3DFACE
  5
2F8
100
AcDbEntity
  8
17
100
AcDbFace
  6
CONTINUOUS
 10
20.0
 20
2.318168796
 30
-0.621340575
 11
20.0
 21
2.0784898582
 31
-1.1998466168
 12
19.4
 22
2.9247835929
 32
-0.6675634313
 13
20.0
 23
2.318168796
 33
-0.621340575
  0
3DFACE
  5
2F9
100
AcDbEntity
  8
17
100
AcDbFace
  6
CONTINUOUS
 10
20.0
 20
2.0784898582
 30
-1.1998466168
 11
20.0
 21
1.6968262175
 31
-1.697234221
 12
19.4
 22
2.3454932418
 32
-1.8704709174
 13
20.0
 23
2.0784898582
 33
-1.1998466168
  0
3DFACE
  5
2FA
100
AcDbEntity
  8
17
100
AcDbFace
  6
CONTINUOUS
 10
20.0
 20
2.0784898582
 30
-1.1998466168
 11
19.4
 21
2.3454932418
 31
-1.8704709174
 12
19.4
 22
2.9247835929
 32
-0.6675634313
 13
20.0
 23
2.0784898582
 33
-1.1998466168
  0
3DFACE
  5
2FB
100
AcDbEntity
  8
17
100
AcDbFace
  6
CONTINUOUS
 10
20.0
 20
1.6968262175
 30
-1.697234221
 11
20.0
 21
1.2001479979
 31
-2.0783522928
 12
19.4
 22
2.3454932418
 32
-1.8704709174
 13
20.0
 23
1.6968262175
 33
-1.697234221
  0
3DFACE
  5
2FC
100
AcDbEntity
  8
17
100
AcDbFace
  6
CONTINUOUS
 10
20.0
 20
1.2001479979
 30
-2.0783522928
 11
20.0
 21
0.6210151286
 31
-2.3181982331
 12
19.4
 22
1.3016481716
 32
-2.7029080704
 13
20.0
 23
1.2001479979
 33
-2.0783522928
  0
3DFACE
  5
2FD
100
AcDbEntity
  8
17
100
AcDbFace
  6
CONTINUOUS
 10
20.0
 20
1.2001479979
 30
-2.0783522928
 11
19.4
 21
1.3016481716
 31
-2.7029080704
 12
19.4
 22
2.3454932418
 32
-1.8704709174
 13
20.0
 23
1.2001479979
 33
-2.0783522928
  0
3DFACE
  5
2FE
100
AcDbEntity
  8
17
100
AcDbFace
  6
CONTINUOUS
 10
20.0
 20
0.6210151286
 30
-2.3181982331
 11
20.0
 21
0.0
 31
-2.4
 12
19.4
 22
1.3016481716
 32
-2.7029080704
 13
20.0
 23
0.6210151286
 33
-2.3181982331
  0
3DFACE
  5
2FF
100
AcDbEntity
  8
17
100
AcDbFace
  6
CONTINUOUS
 10
20.0
 20
0.0
 30
-2.4
 11
19.4
 21
0.0
 31
-3.0
 12
19.4
 22
1.3016481716
 32
-2.7029080704
 13
20.0
 23
0.0
 33
-2.4
  0
ENDSEC
  0
SECTION
  2
OBJECTS
  0
DICTIONARY
  5
C
100
AcDbDictionary
280
0
281
1
  3
ACAD_GROUP
350
D
  3
ACAD_MLINESTYLE
350
17
  3
ACAD_LAYOUT
350
1A
  3
ACAD_PLOTSETTINGS
350
19
  3
ACAD_PLOTSTYLENAME
350
E
  0
DICTIONARY
  5
D
102
{ACAD_REACTORS
330
C
102
}
100
AcDbDictionary
280
0
281
1
  0
ACDBDICTIONARYWDFLT
  5
E
102
{ACAD_REACTORS
330
C
102
}
100
AcDbDictionary
281
1
  3
Normal
350
F
100
AcDbDictionaryWithDefault
340
F
  0
DICTIONARY
  5
17
102
{ACAD_REACTORS
330
C
102
}
100
AcDbDictionary
280
0
281
1
  3
Standard
350
18
  0
DICTIONARY
  5
19
102
{ACAD_REACTORS
330
C
102
}
100
AcDbDictionary
281
1
  0
DICTIONARY
  5
1A
102
{ACAD_REACTORS
330
C
102
}
100
AcDbDictionary
281
1
  3
Model
350
300
  3
Layout1
350
301
  0
ACDBPLACEHOLDER
  5
F
102
{ACAD_REACTORS
330
E
102
}
  0
MLINESTYLE
  5
18
102
{ACAD_REACTORS
330
17
102
}
100
AcDbMlineStyle
  2
STANDARD
 70
0
  3

 62
256
 51
90.0
 52
90.0
 71
2
 49
0.5
 62
256
  6
BYLAYER
 49
-0.5
 62
256
  6
BYLAYER
  0
LAYOUT
  5
300
102
{ACAD_REACTORS
330
1A
102
}
100
AcDbPlotSettings
  1

  2
none_device
  4
ANSI_A_(11.00_x_8.50_Inches)
  6

 40
0.0
 41
0.0
 42
0.0
 43
0.0
 44
3051.7578125
 45
2574.9206542969
 46
0.0
 47
0.0
 48
0.0
 49
0.0
140
0.0
141
0.0
142
1.0
143
1.0
 70
1024
 72
1
 73
0
 74
0
  7

 75
0
147
1.0
148
0.0
149
0.0
100
AcDbLayout
  1
Model
 70
0
 71
0
 10
0.0
 20
0.0
 11
3051.7578125
 21
2574.9206542969
 12
0.0
 22
0.0
 32
0.0
 14
0.0
 24
0.0
 34
0.0
 15
0.0
 25
0.0
 35
0.0
146
0.0
 13
0.0
 23
0.0
 33
0.0
 16
1.0
 26
0.0
 36
0.0
 17
0.0
 27
1.0
 37
0.0
 76
0
330
20F
345
0
346
0
  0
LAYOUT
  5
301
102
{ACAD_REACTORS
330
1A
102
}
100
AcDbPlotSettings
  1

  2
none_device
  4
ANSI_A_(11.00_x_8.50_Inches)
  6

 40
0.0
 41
0.0
 42
0.0
 43
0.0
 44
3051.7578125
 45
2574.9206542969
 46
0.0
 47
0.0
 48
0.0
 49
0.0
140
0.0
141
0.0
142
1.0
143
1.0
 70
0
 72
1
 73
0
 74
0
  7

 75
0
147
1.0
148
0.0
149
0.0
100
AcDbLayout
  1
Layout1
 70
0
 71
1
 10
0.0
 20
0.0
 11
3051.7578125
 21
2574.9206542969
 12
0.0
 22
0.0
 32
0.0
 14
0.0
 24
0.0
 34
0.0
 15
0.0
 25
0.0
 35
0.0
146
0.0
 13
0.0
 23
0.0
 33
0.0
 16
1.0
 26
0.0
 36
0.0
 17
0.0
 27
1.0
 37
0.0
 76
0
330
210
345
0
346
0
  0
ENDSEC
  0
EOF
